<svg xmlns="http://www.w3.org/2000/svg" width="24" height="24" viewBox="0 0 24 24">
    <g fill="none" fill-rule="evenodd">
        <path fill="#FFB249" fill-rule="nonzero" d="M12.205-.004l-.214.002a12.225 12.225 0 0 0-8.517 3.658C1.179 5.976-.053 9.013.002 12.208.117 18.82 5.298 24 11.797 24l.212-.003c6.726-.115 12.105-5.594 11.99-12.209C23.883 5.177 18.702-.004 12.204-.004z"/>
        <path fill="#3E3832" d="M11.478 6.257a.522.522 0 0 1 1.044 0v7.304a.523.523 0 0 1-1.044 0V6.257zM12.019 18.257H12a1.043 1.043 0 0 1-.019-2.086L12 16.17a1.044 1.044 0 0 1 .019 2.087z"/>
    </g>
</svg>
