<svg role="presentation" focusable='false' width="57" height="42" xmlns="http://www.w3.org/2000/svg" xmlns:xlink="http://www.w3.org/1999/xlink"><defs><path id="a" d="M0 0h56.421v42.43H0z"/></defs><g transform="translate(.282 -.77)" fill="none" fill-rule="evenodd"><mask id="b" fill="#fff"><use xlink:href="#a"/></mask><path d="M37.651.77c.011 3.544-.046 7.09.065 10.63.048 1.533-.902 1.395-1.889 1.337-.927-.054-2.222.473-2.111-1.285.097-1.545-.079-3.107.045-4.648.125-1.554-.358-2.125-2.092-2.08-4.401.116-8.81-.02-13.212.072-1.43.029-1.842-.434-1.703-1.705.083-.764-.018-1.546-.036-2.32H37.65zm17.803 3.948c-3.971.007-7.944-.045-11.913.051-1.445.035-1.865-.457-1.756-1.707.066-.757-.039-1.527-.067-2.291H55.5c.246 1.318.346 2.635-.047 3.947" fill="#6DA2C4" mask="url(#b)"/><path d="M5.68.77c0 .766-.06 1.538.014 2.296.119 1.21-.186 1.766-1.576 1.7-2.801-.136-2.332.21-2.381-2.355-.01-.546-.013-1.093-.02-1.64H5.68zm8.973 0c.005.71-.056 1.426.028 2.125.163 1.353-.186 1.964-1.725 1.866-2.194-.14-2.199-.029-2.204-2.192 0-.6-.022-1.199-.034-1.798h3.935z" fill="#6FA3C5" mask="url(#b)"/><path d="M29.42 16.79c2.322 0 4.645.035 6.967-.016.984-.022 1.283.312 1.309 1.243.075 2.73.117 2.73-2.706 2.73-5.516.002-11.032-.028-16.548.024-1.257.011-1.758-.31-1.723-1.585.083-2.989.07-5.981.003-8.97-.024-1.083.321-1.554 1.475-1.409.342.043.702.047 1.043 0 1.26-.17 1.776.238 1.692 1.534-.115 1.766.01 3.544-.042 5.315-.026.874.315 1.162 1.213 1.147 2.438-.04 4.878-.014 7.316-.013" fill="#6EA2C4" mask="url(#b)"/><path d="M55.718 7.831l-.004 3.882c-3.517.006-7.038-.068-10.552.056-1.603.056-1.438-.929-1.44-1.998-.001-1.074-.154-2.054 1.444-1.998 3.514.123 7.034.05 10.552.058m0 9.004l-.031 3.88c-3.514.007-7.03-.064-10.54.054-1.611.054-1.415-.958-1.424-2.013-.008-1.084-.135-2.04 1.455-1.983 3.51.128 7.026.054 10.54.062" fill="#6EA2C5" mask="url(#b)"/><path d="M12.153 13.586c-2.344.702-2.238-.706-2.406-2.383-.238-2.388 1.003-2.277 2.71-2.414 2.284-.183 2.145 1.035 2.247 2.652.135 2.136-.736 2.65-2.551 2.145" fill="#70A4C5" mask="url(#b)"/><path d="M3.057 20.6C.79 21.273.922 19.85.749 18.188c-.25-2.4 1.02-2.256 2.707-2.398 2.286-.19 2.12 1.046 2.243 2.648.17 2.19-.85 2.525-2.642 2.162m6.842-2.397c-.695-2.348.717-2.23 2.382-2.401 2.349-.241 2.296.947 2.421 2.69.164 2.277-1.01 2.176-2.638 2.268-2.09.117-2.666-.703-2.165-2.557" fill="#70A4C6" mask="url(#b)"/><path d="M27.682 8.95c1.687-.593 2.032.369 2.036 2.267.003 1.821-.24 2.626-1.926 2.549-1.482-.067-2.152-.39-2.067-2.442.072-1.759.176-3.04 1.957-2.375" fill="#71A4C6" mask="url(#b)"/><path d="M5.703 7.985l.015.374c-.218.458-.12.949-.129 1.426-.037 1.907-.047 1.756-1.961 1.958-1.544.163-1.959-.374-1.906-1.866.072-2.05.036-2.09 2.285-2.066.565.006 1.16-.172 1.696.174" fill="#6DA2C4" mask="url(#b)"/><path d="M3.898 43.035c-2.002 0-3.256-1.452-3.256-3.3 0-2.288 1.826-3.542 6.138-3.982-.066-.968-.528-1.584-1.716-1.584-.924 0-1.826.374-2.882.99l-1.166-2.134c1.386-.836 2.948-1.43 4.664-1.43 2.794 0 4.334 1.584 4.334 4.928v6.248h-2.64l-.22-1.122h-.088c-.924.814-1.936 1.386-3.168 1.386zm1.1-2.508c.726 0 1.21-.352 1.782-.924v-1.914c-2.288.308-3.036.968-3.036 1.804 0 .704.484 1.034 1.254 1.034zm10.714 2.508c-2.222 0-2.97-1.452-2.97-3.652V27.349h3.234v12.166c0 .682.308.902.572.902.132 0 .22 0 .396-.044l.396 2.398c-.352.154-.902.264-1.628.264zm7.524 0c-2.706 0-3.762-1.694-3.762-4.224v-4.422h-1.496V31.99l1.672-.132.374-2.904h2.684v2.904h2.618v2.53h-2.618v4.378c0 1.232.55 1.738 1.408 1.738.352 0 .748-.11 1.034-.22l.506 2.354c-.572.176-1.364.396-2.42.396zm4.224-.264V31.859h3.234V42.77H27.46zm1.606-12.518c-1.078 0-1.87-.704-1.87-1.694s.792-1.672 1.87-1.672c1.1 0 1.87.682 1.87 1.672 0 .99-.77 1.694-1.87 1.694zm4.466 12.518V31.859h2.64l.22 1.386h.088c.924-.88 2.024-1.65 3.498-1.65 2.376 0 3.388 1.672 3.388 4.4v6.776h-3.234v-6.358c0-1.584-.418-2.068-1.342-2.068-.814 0-1.32.374-2.024 1.056v7.37h-3.234zm12.584 0V31.859h2.64l.22 1.386h.088c.924-.88 2.024-1.65 3.498-1.65 2.376 0 3.388 1.672 3.388 4.4v6.776h-3.234v-6.358c0-1.584-.418-2.068-1.342-2.068-.814 0-1.32.374-2.024 1.056v7.37h-3.234z" fill="#6DA2C4" fill-rule="nonzero" mask="url(#b)"/></g></svg>