<svg width="40" height="35" xmlns="http://www.w3.org/2000/svg"><g transform="translate(0 -5)" fill="none" fill-rule="evenodd"><path d="M0 22.5c0 1.805.56 2.883 1.667 3.22v6.78h6.666v-6.78C9.44 25.383 9.998 24.305 10 22.5v-5.833H0V22.5z" fill="#D6897D"/><path d="M30 16.667V22.5c0 1.805.56 2.883 1.667 3.22v6.78h6.666v-6.78c1.107-.337 1.665-1.415 1.667-3.22v-5.833H30z" fill="#6AB889"/><path d="M13.333 25.833a4.174 4.174 0 003.334 4.084V40h6.666V29.917a4.173 4.173 0 003.334-4.084v-9.166H13.333v9.166z" fill="#669DB4"/><path d="M35 15a3.336 3.336 0 003.333-3.333A3.336 3.336 0 0035 8.333a3.338 3.338 0 00-3.333 3.334A3.338 3.338 0 0035 15z" fill="#6AB889"/><path d="M5 15a3.336 3.336 0 003.333-3.333A3.336 3.336 0 005 8.333a3.338 3.338 0 00-3.333 3.334A3.338 3.338 0 005 15z" fill="#D6897D"/><circle fill="#669DB4" cx="20" cy="10" r="5"/></g></svg>