<svg xmlns="http://www.w3.org/2000/svg" width="25" height="24" viewBox="0 0 25 24">
    <path fill="#3E3832" fill-rule="evenodd" d="M21.5 0h-10a.5.5 0 0 0-.5.5V8H3.5a.5.5 0 0 0-.5.5v15a.5.5 0 0 0 .5.5h18a.5.5 0 0 0 .5-.5V.5a.5.5 0 0 0-.5-.5zM4 15h1.5a.5.5 0 0 0 0-1H4v-1h2.5a.5.5 0 0 0 0-1H4v-1h3.5a.5.5 0 0 0 0-1H4V9h9v14H9v-2.5a.5.5 0 0 0-.5-.5h-3a.5.5 0 0 0-.5.5V23H4v-8zm2 8v-2h2v2H6zm11 0v-2h2v2h-2zm4 0h-1v-2.5a.5.5 0 0 0-.5-.5h-3a.5.5 0 0 0-.5.5V23h-2V8.5a.5.5 0 0 0-.5-.5H12V7h2.5a.5.5 0 0 0 0-1H12V5h3.5a.5.5 0 0 0 0-1H12V3h5.5a.5.5 0 0 0 0-1H12V1h9v22z"/>
</svg>
