<?xml version="1.0" encoding="UTF-8"?>
<svg width="30px" height="25px" viewBox="0 0 24 17" version="1.1" xmlns="http://www.w3.org/2000/svg" xmlns:xlink="http://www.w3.org/1999/xlink">
    <!-- Generator: Sketch 57.1 (83088) - https://sketch.com -->
    <title>Color/32-content/box-2</title>
    <desc>Created with Sketch.</desc>
    <g id="-----↳-Versjon-10" stroke="none" stroke-width="1" fill="none" fill-rule="evenodd">
        <g id="Godkjent-avtale---automatisk-journalføring" transform="translate(-375.000000, -2578.000000)">
            <g id="Color/32-content/box-2" transform="translate(375.000000, 2571.000000)">
                <path d="M2.49999996,17 L21.5,17 C21.776,17 22,16.776 22,16.5 C22,16.225 21.776,16 21.5,16 L2.49999996,16 C2.22399996,16 1.99999996,16.225 1.99999996,16.5 C1.99999996,16.776 2.22399996,17 2.49999996,17 Z" id="Path-Copy" fill="#E7E9E9"></path>
                <path d="M2.49999996,15 L21.5,15 C21.776,15 22,14.776 22,14.5 C22,14.225 21.776,14 21.5,14 L2.49999996,14 C2.22399996,14 1.99999996,14.225 1.99999996,14.5 C1.99999996,14.776 2.22399996,15 2.49999996,15 Z" id="Path-Copy-3" fill="#E7E9E9"></path>
                <path d="M2.49999996,16 L21.5,16 C21.776,16 22,15.776 22,15.5 C22,15.225 21.776,15 21.5,15 L2.49999996,15 C2.22399996,15 1.99999996,15.225 1.99999996,15.5 C1.99999996,15.776 2.22399996,16 2.49999996,16 Z" id="Path-Copy-2" fill="#C6C2BF"></path>
                <path d="M2.49999996,14 L21.5,14 C21.776,14 22,13.776 22,13.5 C22,13.225 21.776,13 21.5,13 L2.49999996,13 C2.22399996,13 1.99999996,13.225 1.99999996,13.5 C1.99999996,13.776 2.22399996,14 2.49999996,14 Z" id="Path-Copy-4" fill="#C6C2BF"></path>
                <path d="M2.49999996,13 L21.5,13 C21.776,13 22,12.776 22,12.5 C22,12.225 21.776,12 21.5,12 L2.49999996,12 C2.22399996,12 1.99999996,12.225 1.99999996,12.5 C1.99999996,12.776 2.22399996,13 2.49999996,13 Z" id="Path-Copy-6" fill="#E7E9E9"></path>
                <path d="M2.49999996,12 L21.5,12 C21.776,12 22,11.776 22,11.5 C22,11.225 21.776,11 21.5,11 L2.49999996,11 C2.22399996,11 1.99999996,11.225 1.99999996,11.5 C1.99999996,11.776 2.22399996,12 2.49999996,12 Z" id="Path-Copy-5" fill="#C6C2BF"></path>
                <path d="M2.49999996,11 L21.5,11 C21.776,11 22,10.776 22,10.5 C22,10.225 21.776,10 21.5,10 L2.49999996,10 C2.22399996,10 1.99999996,10.225 1.99999996,10.5 C1.99999996,10.776 2.22399996,11 2.49999996,11 Z" id="Path-Copy-8" fill="#E7E9E9"></path>
                <path d="M2.49999996,10 L21.5,10 C21.776,10 22,9.776 22,9.5 C22,9.225 21.776,9 21.5,9 L2.49999996,9 C2.22399996,9 1.99999996,9.225 1.99999996,9.5 C1.99999996,9.776 2.22399996,10 2.49999996,10 Z" id="Path-Copy-7" fill="#C6C2BF"></path>
                <path d="M2.49999996,9 L21.5,9 C21.776,9 22,8.776 22,8.5 C22,8.225 21.776,8 21.5,8 L2.49999996,8 C2.22399996,8 1.99999996,8.225 1.99999996,8.5 C1.99999996,8.776 2.22399996,9 2.49999996,9 Z" id="Path-Copy-10" fill="#E7E9E9"></path>
                <path d="M2.49999996,8 L21.5,8 C21.776,8 22,7.776 22,7.5 C22,7.225 21.776,7 21.5,7 L2.49999996,7 C2.22399996,7 1.99999996,7.225 1.99999996,7.5 C1.99999996,7.776 2.22399996,8 2.49999996,8 Z" id="Path-Copy-9" fill="#C6C2BF"></path>
                <path d="M23.4999999,15 L16.4999999,15 C16.224,15 15.9999999,15.225 15.9999999,15.5 L15.9999999,17 L7.99999995,17 L7.99999995,15.5 C7.99999995,15.225 7.77599998,15 7.49999995,15 L0.49999995,15 C0.223999951,15 -5.00000041e-08,15.225 -5.00000041e-08,15.5 L-5.00000041e-08,23.5 C-5.00000041e-08,23.776 0.223999951,24 0.49999995,24 L23.4999999,24 C23.776,24 23.9999999,23.776 23.9999999,23.5 L23.9999999,15.5 C23.9999999,15.225 23.776,15 23.4999999,15 Z" id="Fill/box-2" fill="#669DB4"></path>
            </g>
        </g>
    </g>
</svg>