<svg width="30" height="25" viewBox="0 0 24 17" xmlns="http://www.w3.org/2000/svg"><g fill="none" fill-rule="evenodd"><path d="M2.5 10h19a.5.5 0 000-1h-19a.5.5 0 000 1zm0-2h19a.5.5 0 000-1h-19a.5.5 0 000 1z" fill="#E7E9E9"/><path d="M2.5 9h19a.5.5 0 000-1h-19a.5.5 0 000 1zm0-2h19a.5.5 0 000-1h-19a.5.5 0 000 1z" fill="#C6C2BF"/><path d="M2.5 6h19a.5.5 0 000-1h-19a.5.5 0 000 1z" fill="#E7E9E9"/><path d="M2.5 5h19a.5.5 0 000-1h-19a.5.5 0 000 1z" fill="#C6C2BF"/><path d="M2.5 4h19a.5.5 0 000-1h-19a.5.5 0 000 1z" fill="#E7E9E9"/><path d="M2.5 3h19a.5.5 0 000-1h-19a.5.5 0 000 1z" fill="#C6C2BF"/><path d="M2.5 2h19a.5.5 0 000-1h-19a.5.5 0 000 1z" fill="#E7E9E9"/><path d="M2.5 1h19a.5.5 0 000-1h-19a.5.5 0 000 1z" fill="#C6C2BF"/><path d="M23.5 8h-7a.5.5 0 00-.5.5V10H8V8.5a.5.5 0 00-.5-.5h-7a.5.5 0 00-.5.5v8a.5.5 0 00.5.5h23a.5.5 0 00.5-.5v-8a.5.5 0 00-.5-.5z" fill="#669DB4"/></g></svg>