<svg xmlns="http://www.w3.org/2000/svg" width="25" height="22"><title></title><path fill="#3E3832" fill-rule="evenodd" d="M24.024 13a.5.5 0 01.5.5v8a.5.5 0 01-.5.5h-23a.5.5 0 01-.5-.5v-8a.5.5 0 01.5-.5h2.5V2.5a.5.5 0 01.5-.5h5.5V.5a.5.5 0 01.5-.5h11a.5.5 0 01.5.5V13h2.5zm-13.5-12v14h6v-1.5a.5.5 0 01.5-.5h3.5V1h-10zm-6 2v10h3.5a.5.5 0 01.5.5V15h1V3h-5zm19 18v-7h-6v1.5a.5.5 0 01-.5.5h-9a.5.5 0 01-.5-.5V14h-6v7h22zm-9.5-17a.5.5 0 010-1h5a.5.5 0 010 1h-5zm-2 2a.5.5 0 010-1h7a.5.5 0 010 1h-7zm0 2a.5.5 0 010-1h7a.5.5 0 010 1h-7zm0 2a.5.5 0 010-1h7a.5.5 0 010 1h-7zm0 2a.5.5 0 010-1h7a.5.5 0 010 1h-7z"/></svg>