<svg width="23" height="23" viewBox="0 0 23 23" xmlns="http://www.w3.org/2000/svg">
  <title>Avbryte avtale</title>
  <path d="M16.5 10c3.584 0 6.5 2.915 6.5 6.5 0 3.584-2.916 6.5-6.5 6.5a6.508 6.508 0 01-6.5-6.5c0-3.585 2.916-6.5 6.5-6.5zm-5-10c.067 0 .132.014.192.04a.495.495 0 01.162.108l4.993 4.994a.502.502 0 01.115.169c.005.012.004.026.008.039.015.048.03.096.03.15v4h-1V6h-4.5a.5.5 0 01-.5-.5V1H1v20h9.5v1H.5a.5.5 0 01-.5-.5V.5A.5.5 0 01.5 0zm2.652 13.446a.5.5 0 00-.707.707l2.347 2.347-2.347 2.346a.5.5 0 00.708.707l2.347-2.347 2.346 2.347a.502.502 0 00.707 0 .5.5 0 000-.707L17.207 16.5l2.346-2.347a.5.5 0 00-.707-.707l-2.347 2.347zM12 1.707V5h3.292L12 1.707z" fill="#0067C5" fill-rule="evenodd"/>
</svg>
