<svg xmlns="http://www.w3.org/2000/svg" xmlns:xlink="http://www.w3.org/1999/xlink" width="40" viewBox="0 0 40 40"><defs><path id="avtaleSignering_svg__a" d="M39 38.7a.8.8 0 01-.7 1.3.8.8 0 01-.6-.3l-5-6.7a.8.8 0 01-.2-.5v-7.6c0-2.1-1.9-4.3-4.2-6.4v7l1.5 1.4a.8.8 0 01-1.2 1.2l-3.8-3.8a1 1 0 00-1.3 0c-.3.3-.1 1.2 0 1.4l3.9 5.5a.8.8 0 01.1.5v1.6a16 16 0 003.2 5.3.8.8 0 01-1.4 1 32.7 32.7 0 01-2-3h-24A3.3 3.3 0 010 33.4v-30A3.3 3.3 0 013.3 0H25a3.3 3.3 0 013.3 3.3v13c3.5 3 5.9 5.7 5.9 8.6v7.3l4.8 6.5zM26 23.2l.7.6V3.3c0-.9-.8-1.6-1.7-1.6H3.3c-.9 0-1.6.7-1.6 1.6v30c0 1 .7 1.7 1.6 1.7h23a4 4 0 01-.5-1.7V32l-1.3-2H4.2a.8.8 0 01-.9-.8v-25c0-.5.4-.9.9-.9h20c.4 0 .8.4.8.9v18.3a2.6 2.6 0 011 .7zm-2.7 5.1l-1-1.6c-.7-.6-1-2.5 0-3.5l1-.7V5H5v23.3h18.3zm-13.2 5v-1.6h6.5v1.6h-6.5zm-2.6 0a.8.8 0 01-.8-.8.8.8 0 011.6 0 .8.8 0 01-.8.8zm11.7 0a.8.8 0 01-.9-.8.8.8 0 011.7 0 .8.8 0 01-.8.8zm-10.9-10v-1.6H20v1.6H8.3zm0-3.3v-1.7H20V20H8.3zm0-3.3V15H20v1.7H8.3zm0-3.4v-1.6H20v1.6H8.3zm0-3.3V8.3H15V10H8.3z"/></defs><g fill="none" fill-rule="evenodd"><mask id="avtaleSignering_svg__b" fill="#fff"><use xlink:href="#avtaleSignering_svg__a"/></mask><use fill="#3E3832" xlink:href="#avtaleSignering_svg__a"/><g fill="#3E3832" mask="url(#avtaleSignering_svg__b)"><path d="M0 40h40V0H0z"/></g></g></svg>