<svg xmlns="http://www.w3.org/2000/svg" width="24" height="24"><g fill="none" fill-rule="evenodd"><title/><path fill="#D6897D" d="M0 13.5c0 1.08.34 1.73 1 1.93v4.07h4v-4.07c.66-.2 1-.85 1-1.93V10H0v3.5z"/><path fill="#6AB889" d="M18 10v3.5c0 1.08.34 1.73 1 1.93v4.07h4v-4.07c.66-.2 1-.85 1-1.93V10h-6z"/><path fill="#669DB4" d="M8 15.5c0 1.2.86 2.22 2 2.45V24h4v-6.05a2.5 2.5 0 002-2.45V10H8v5.5z"/><path fill="#6AB889" d="M21 9a2 2 0 100-4 2 2 0 000 4z"/><path fill="#D6897D" d="M3 9a2 2 0 100-4 2 2 0 000 4z"/><circle cx="12" cy="6" r="3" fill="#669DB4"/></g></svg>