<svg xmlns="http://www.w3.org/2000/svg" xmlns:xlink="http://www.w3.org/1999/xlink" role="presentation" focusable="false" width="40" viewBox="0 0 24 24"><defs><path id="behandlingPersonOpplysning_svg__a" d="M20.5 9a.5.5 0 01.5.5v14a.5.5 0 01-.5.5h-17a.5.5 0 01-.5-.5v-14a.5.5 0 01.5-.5H6V6a6 6 0 0112 0v3h2.5zM7 6v3h10V6A5 5 0 007 6zm13 17V10H4v13h16zm-8-9a1 1 0 011 1 1 1 0 01-.5.8v2.7a.5.5 0 01-1 0v-2.7a1 1 0 01-.5-.8 1 1 0 011-1z"/></defs><g fill="none" fill-rule="evenodd"><mask id="behandlingPersonOpplysning_svg__b" fill="#fff"><use xlink:href="#behandlingPersonOpplysning_svg__a"/></mask><use fill="#3E3832" xlink:href="#behandlingPersonOpplysning_svg__a"/><g fill="#3E3832" mask="url(#behandlingPersonOpplysning_svg__b)"><path d="M0 24h24V0H0z"/></g></g></svg>