<svg width="40" height="50" viewBox="0 0 24 30" xmlns="http://www.w3.org/2000/svg">
  <title/>
  <g fill="none" fill-rule="evenodd">
    <rect fill="#D8A25C" y="2" width="18" height="22" rx="1.01"/>
    <path fill="#E7E9E9" d="M2 4h14v18H2z"/>
    <path d="M13.5 9h-6a.5.5 0 010-1h6a.5.5 0 010 1" fill="#59514B"/>
    <path d="M13.54 4H4.46C4.2 4 4 3.82 4 3.6V2c0-.22.2-.4.46-.4h2.31C6.98.69 7.9 0 9 0s2.02.69 2.23 1.6h2.31c.26 0 .46.18.46.4v1.6c0 .22-.2.4-.46.4z" fill="#005B82"/>
    <path d="M13.5 12h-6a.5.5 0 010-1h6a.5.5 0 010 1m0 3h-6a.5.5 0 010-1h6a.5.5 0 010 1m0 3h-6a.5.5 0 010-1h6a.5.5 0 010 1M5.33 9h-.66C4.3 9 4 8.78 4 8.5s.3-.5.67-.5h.66c.37 0 .67.22.67.5s-.3.5-.67.5m0 3h-.66c-.37 0-.67-.22-.67-.5s.3-.5.67-.5h.66c.37 0 .67.22.67.5s-.3.5-.67.5m0 3h-.66c-.37 0-.67-.22-.67-.5s.3-.5.67-.5h.66c.37 0 .67.23.67.5s-.3.5-.67.5m0 3h-.66c-.37 0-.67-.22-.67-.5s.3-.5.67-.5h.66c.37 0 .67.22.67.5s-.3.5-.67.5" fill="#59514B"/>
  </g>
</svg>