<svg width="40" height="50" viewBox="0 0 24 30" xmlns="http://www.w3.org/2000/svg"><g fill="none" fill-rule="evenodd"><rect fill="#D8A25C" y="2" width="18" height="22" rx="1.008"/><path fill="#E7E9E9" d="M2 4h14v18H2z"/><path d="M13.5 9h-6a.5.5 0 0 1 0-1h6a.5.5 0 0 1 0 1" fill="#59514B"/><path d="M13.545 4h-9.09C4.204 4 4 3.82 4 3.6V2c0-.22.204-.4.455-.4h2.318C6.983.688 7.903 0 9 0s2.016.688 2.227 1.6h2.318c.251 0 .455.18.455.4v1.6c0 .22-.204.4-.455.4z" fill="#005B82"/><path d="M13.5 12h-6a.5.5 0 0 1 0-1h6a.5.5 0 0 1 0 1M13.5 15h-6a.5.5 0 0 1 0-1h6a.5.5 0 0 1 0 1M13.5 18h-6a.5.5 0 0 1 0-1h6a.5.5 0 0 1 0 1M5.333 9h-.666C4.299 9 4 8.776 4 8.5s.299-.5.667-.5h.666c.368 0 .667.224.667.5s-.299.5-.667.5M5.333 12h-.666C4.299 12 4 11.776 4 11.5s.299-.5.667-.5h.666c.368 0 .667.224.667.5s-.299.5-.667.5M5.333 15h-.666C4.299 15 4 14.776 4 14.5s.299-.5.667-.5h.666c.368 0 .667.225.667.5s-.299.5-.667.5M5.333 18h-.666C4.299 18 4 17.776 4 17.5s.299-.5.667-.5h.666c.368 0 .667.224.667.5s-.299.5-.667.5" fill="#59514B"/></g></svg>