<svg width="16" height="15" fill="none" xmlns="http://www.w3.org/2000/svg"><path fill-rule="evenodd" clip-rule="evenodd" d="M.071 2.333A1.668 1.668 0 111.738 4 1.669 1.669 0 01.071 2.333zM15.262 3H5.785a.666.666 0 110-1.333h9.477a.667.667 0 010 1.333zM1.738 6C.819 6 .071 6.747.071 7.667c0 .918.748 1.666 1.667 1.666.92 0 1.667-.748 1.667-1.666C3.405 6.747 2.657 6 1.738 6zm4.047 1h9.477a.667.667 0 010 1.333H5.785a.666.666 0 110-1.333zm-4.047 4.333c-.919 0-1.667.748-1.667 1.667s.748 1.667 1.667 1.667c.92 0 1.667-.748 1.667-1.667 0-.92-.748-1.667-1.667-1.667zm4.047 1h9.477a.667.667 0 010 1.334H5.785a.666.666 0 110-1.334z" fill="#0067C5"/></svg>