<svg width="19" height="24" viewBox="0 0 19 24" fill="none" xmlns="http://www.w3.org/2000/svg"><path fill-rule="evenodd" clip-rule="evenodd" d="M18.5 0h-10a.5.5 0 00-.5.5V8H.5a.5.5 0 00-.5.5v15a.5.5 0 00.5.5h18a.5.5 0 00.5-.5V.5a.5.5 0 00-.5-.5zM1 15h1.5a.5.5 0 000-1H1v-1h2.5a.5.5 0 000-1H1v-1h3.5a.5.5 0 000-1H1V9h9v14H6v-2.5a.5.5 0 00-.5-.5h-3a.5.5 0 00-.5.5V23H1v-8zm2 8v-2h2v2H3zm11 0v-2h2v2h-2zm4 0h-1v-2.5a.5.5 0 00-.5-.5h-3a.5.5 0 00-.5.5V23h-2V8.5a.5.5 0 00-.5-.5H9V7h2.5a.5.5 0 000-1H9V5h3.5a.5.5 0 000-1H9V3h5.5a.5.5 0 000-1H9V1h9v22z" fill="#3E3832"/></svg>