<svg xmlns="http://www.w3.org/2000/svg" xmlns:xlink="http://www.w3.org/1999/xlink" width="40" height="40"><title></title><defs><path id="check-stroke_svg__a" d="M20 40C8.972 40 0 31.028 0 20S8.972 0 20 0s20 8.972 20 20-8.972 20-20 20zm0-38.333C9.892 1.667 1.667 9.892 1.667 20c0 10.108 8.225 18.333 18.333 18.333 10.108 0 18.333-8.225 18.333-18.333C38.333 9.892 30.108 1.667 20 1.667zm-4.167 25a.837.837 0 01-.59-.244l-4.166-4.166a.834.834 0 011.178-1.179l3.598 3.597 11.91-11.117a.836.836 0 011.179.04.836.836 0 01-.04 1.179l-12.5 11.666a.833.833 0 01-.569.224z"/></defs><g fill="none" fill-rule="evenodd"><mask id="check-stroke_svg__b" fill="#fff"><use xlink:href="#check-stroke_svg__a"/></mask><use fill="#3E3832" fill-rule="nonzero" xlink:href="#check-stroke_svg__a"/><g fill="#3E3832" mask="url(#check-stroke_svg__b)"><path d="M0 40h40V0H0z"/></g></g></svg>