<svg xmlns="http://www.w3.org/2000/svg" width="23" height="23"><g fill="none" fill-rule="evenodd"><path fill="#9BD0B0" fill-rule="nonzero" d="M11.5 0C5.159 0 0 5.16 0 11.5S5.159 23 11.5 23C17.84 23 23 17.84 23 11.5S17.84 0 11.5 0zm5.118 8.497l-7.187 6.708a.48.48 0 0 1-.666-.012l-2.396-2.395a.48.48 0 0 1 .678-.678l2.068 2.068 6.849-6.392a.48.48 0 1 1 .654.7z"/><path fill="#3E3832" d="M16.618 8.497l-7.187 6.708a.48.48 0 0 1-.666-.012l-2.396-2.395a.48.48 0 0 1 .678-.678l2.068 2.068 6.849-6.392a.48.48 0 1 1 .654.7z"/></g></svg>