<svg xmlns="http://www.w3.org/2000/svg" width="55" height="70"><title>Digital avtale</title><g fill="none" fill-rule="evenodd"><path fill="#ABB2BA" d="M24.034 47H2.966A2.963 2.963 0 010 44.039V2.96A2.963 2.963 0 012.966 0h21.068A2.963 2.963 0 0127 2.96v41.08A2.963 2.963 0 0124.034 47z"/><g transform="translate(2 2)"><rect width="24" height="38" fill="#FFF" rx="1"/><path fill="#D6F4FB" d="M.96.95h22.08V13.3H.96z"/><path fill="#D8D8D8" d="M1.92 17.1h20.16V19H1.92zm0 4.75h20.16v1.9H1.92zm0 4.75h20.16v1.9H1.92z"/></g><path fill="#627282" d="M16 43.5c0 .828-.895 1.5-2 1.5-1.104 0-2-.672-2-1.5s.896-1.5 2-1.5c1.105 0 2 .672 2 1.5"/><path fill="#E7E6E2" d="M26.863 34.865l-2.587-3.684c-.896-1.276-2.628-1.563-3.867-.64l-.262.194c-1.24.924-1.518 2.707-.621 3.984l6.818 9.71c.272 1.103.673 2.195 1.088 3.17.737 1.736 3.716 5.207 3.928 6.317.212 1.111.424 2.084.424 2.084L45 51.415l-4.349-14.71a1.569 1.569 0 00-.352-.62c-1.527-1.653-10.045-10.392-11.488-11.872A.706.706 0 0028.3 24h-1.35v10.331l-.087.534z"/><path fill="#BDD1D0" d="M48.02 51L31 57.074 35.52 70H55z"/><path fill="#6E9DAA" d="M48.072 50L30 55.93 31.928 61 50 55.07z"/><path fill="#37363A" d="M46.943 53.667a1 1 0 10-1.885.666 1 1 0 001.885-.666"/></g></svg>