<svg xmlns="http://www.w3.org/2000/svg" xmlns:xlink="http://www.w3.org/1999/xlink" width="40" viewBox="0 0 40 40"><title>Samhandling</title><defs><path id="drofteMedAnsattePersonOpplysning_svg__a" d="M37.792 13.742C39.03 14.095 40 15.38 40 16.667v.833c0 .46-.373.833-.833.833H22.5a.834.834 0 01-.833-.833v-.833c0-1.285.968-2.57 2.205-2.925l3.628-1.037V11.43C25.993 10.293 25 8.415 25 6.285 25 2.82 27.617 0 30.833 0c3.217 0 5.834 2.82 5.834 6.285 0 2.13-.994 4.008-2.5 5.145v1.275l3.625 1.037zM10 18.333H.833A.834.834 0 010 17.5v-.833c0-1.285.968-2.57 2.205-2.925l3.628-1.037V11.43c-1.506-1.137-2.5-3.015-2.5-5.145C3.333 2.82 5.95 0 9.167 0 12.383 0 15 2.82 15 6.285c0 2.13-.993 4.008-2.5 5.145v1.275l3.625 1.037c1.238.353 2.208 1.638 2.208 2.925v.833c0 .46-.373.833-.833.833H10zm16.958 17.075c1.239.354 2.209 1.639 2.209 2.925v.834c0 .46-.374.833-.834.833H11.667a.834.834 0 01-.834-.833v-.834c0-1.285.969-2.57 2.205-2.925l3.629-1.036v-1.275c-1.507-1.137-2.5-3.015-2.5-5.145 0-3.465 2.616-6.285 5.833-6.285s5.833 2.82 5.833 6.285c0 2.13-.993 4.008-2.5 5.145v1.275l3.625 1.036zM1.667 16.667h15c0-.544-.477-1.174-1-1.322l-4.229-1.21a.835.835 0 01-.605-.802v-1.055c-.531.174-1.083.294-1.666.294-.584 0-1.135-.12-1.667-.294v1.055a.835.835 0 01-.605.802l-4.232 1.21c-.521.148-.996.778-.996 1.322zM5.012 6.418c.065 2.485 1.898 4.487 4.155 4.487 2.196 0 3.981-1.9 4.136-4.292a3.748 3.748 0 01-1.36.039c-.818-.12-1.538-.474-2.078-1.005-1.492 1.035-3.377 1.216-4.853.771zm4.155-4.751c-1.805 0-3.334 1.288-3.91 3.073 1.118.433 2.938.338 4.153-.878a.831.831 0 011.323.195c.374.693 1.07.89 1.452.946.363.054.692.014.947-.065-.525-1.886-2.094-3.271-3.965-3.271zm22.5 15h6.666c0-.544-.476-1.174-1-1.322l-4.228-1.21a.835.835 0 01-.605-.802v-1.055c-.532.174-1.083.294-1.667.294-.583 0-1.135-.12-1.666-.294v1.055a.835.835 0 01-.605.802l-4.232 1.21c-.522.148-.997.778-.997 1.322h8.334zM26.678 6.418c.065 2.485 1.899 4.487 4.155 4.487 2.199 0 3.989-1.905 4.137-4.302a3.699 3.699 0 01-1.375.047 3.678 3.678 0 01-2.063-1.003c-1.492 1.036-3.377 1.216-4.854.771zm4.155-4.751c-1.805 0-3.333 1.288-3.91 3.073 1.12.433 2.939.338 4.154-.878a.831.831 0 011.323.195c.373.691 1.062.888 1.438.943.369.052.702.008.957-.073-.527-1.882-2.093-3.26-3.962-3.26zm-10 36.666H27.5c0-.543-.477-1.173-1-1.321l-4.228-1.21a.835.835 0 01-.605-.802v-1.055c-.532.173-1.084.293-1.667.293s-1.135-.12-1.667-.293V35a.835.835 0 01-.605.802l-4.231 1.21c-.522.148-.997.778-.997 1.321h8.333zm-4.988-10.248c.065 2.485 1.898 4.487 4.155 4.487 2.212 0 4.008-1.925 4.142-4.342a3.748 3.748 0 01-1.419.062c-.795-.119-1.495-.462-2.023-.98-1.493 1.036-3.378 1.218-4.855.773zM20 23.333c-1.805 0-3.333 1.289-3.91 3.074 1.118.433 2.938.338 4.153-.879a.831.831 0 011.323.195c.362.674 1.032.865 1.399.919.38.058.723.008.988-.08-.536-1.865-2.096-3.229-3.953-3.229zm-8.578 2.256a.83.83 0 01-.59.244.829.829 0 01-.588-.244l-4.167-4.166a.834.834 0 011.179-1.179l4.166 4.167a.834.834 0 010 1.178zm21.322-5.345a.834.834 0 011.178 1.178l-4.166 4.167a.83.83 0 01-1.178 0 .834.834 0 010-1.178l4.166-4.167z"/></defs><g fill="none" fill-rule="evenodd"><mask id="drofteMedAnsattePersonOpplysning_svg__b" fill="#fff"><use xlink:href="#drofteMedAnsattePersonOpplysning_svg__a"/></mask><use fill="#3E3832" xlink:href="#drofteMedAnsattePersonOpplysning_svg__a"/><g fill="#3E3832" mask="url(#drofteMedAnsattePersonOpplysning_svg__b)"><path d="M0 40h40V0H0z"/></g></g></svg>