<svg width="55" height="64" xmlns="http://www.w3.org/2000/svg"><title>Dynamisk avtale</title><g fill="none" fill-rule="evenodd"><path fill="#FFF" d="M0 0h55v64H0z"/><path d="M.79 10.755l10.209-9.18H39.42a4 4 0 014 4v45.55a4 4 0 01-4 4H4.79a4 4 0 01-4-4v-40.37z" fill="#E4E4DB"/><path d="M10.999 1.575v6.393c0 1.54-1.313 2.787-2.934 2.787H.789L11 1.575z" fill="#C9C9C9"/><g fill="#8F9395"><path d="M8.6 21.385h26.52v-2.28H8.6zM8.6 26.705h26.52v-2.28H8.6zM8.6 32.025h26.52v-2.28H8.6zM8.6 37.345h26.52v-2.28H8.6zM8.6 42.665h26.52v-2.28H8.6zM8.6 16.065h26.52v-2.28H8.6z"/></g><path d="M28.026 50.4c-3.102 0-5.177 3.06-7.182 6.018-1.843 2.72-3.75 5.532-6.239 5.532-3.083 0-5.592-2.355-5.592-5.25s2.509-5.25 5.592-5.25c1.933 0 3.265 1.432 3.96 2.425l-2.71-.48c-.298-.054-.595.133-.652.419-.059.284.142.56.446.613l3.886.689a.58.58 0 00.325-.034c.023-.01.037-.026.058-.038.01-.006.025-.003.037-.01.018-.012.027-.029.042-.041a.495.495 0 00.171-.25c.006-.016.017-.03.02-.045l.732-3.65c.057-.284-.142-.559-.445-.611-.301-.052-.596.132-.653.419l-.452 2.25c-.86-1.169-2.43-2.706-4.765-2.706-3.7 0-6.71 2.826-6.71 6.3 0 3.474 3.01 6.3 6.71 6.3 3.103 0 5.177-3.06 7.183-6.018 1.843-2.72 3.749-5.532 6.238-5.532 3.084 0 5.592 2.355 5.592 5.25s-2.508 5.25-5.592 5.25c-2.984 0-4.491-2.274-4.554-2.37a.579.579 0 00-.767-.178.507.507 0 00-.191.719c.076.116 1.882 2.879 5.512 2.879 3.701 0 6.71-2.826 6.71-6.3 0-3.474-3.009-6.3-6.71-6.3z" stroke="#3F3732" stroke-width=".7" fill="#3E3832"/></g></svg>