<?xml version="1.0" encoding="UTF-8"?>
<svg width="24px" height="11px" viewBox="0 0 24 11" version="1.1" xmlns="http://www.w3.org/2000/svg" xmlns:xlink="http://www.w3.org/1999/xlink">
    <!-- Generator: Sketch 57.1 (83088) - https://sketch.com -->
    <title>Outline/10-email/email-send-3</title>
    <desc>Created with Sketch.</desc>
    <g id="-----↳-Versjon-10" stroke="none" stroke-width="1" fill="none" fill-rule="evenodd">
        <g id="Godkjent-avtale-m/-instruks" transform="translate(-375.000000, -2649.000000)" fill="#3E3832">
            <g id="Outline/10-email/email-send-3" transform="translate(375.000000, 2643.000000)">
                <path d="M22.484,5.99999998 C23.027,5.99999998 23.491,6.22599998 23.758,6.62099998 C24.0154001,7.00079998 24.0678701,7.50128998 23.908849,8.01457798 L23.848,8.18599998 L21.048,15.186 C20.6636111,16.1465 19.637,16.9107654 18.6564248,16.9927193 L18.484,17 L6.48399998,17 C5.94099997,17 5.47699997,16.774 5.20899997,16.379 C4.95159997,15.9992 4.89912997,15.49871 5.05815097,14.985422 L5.11899997,14.814 L7.91899998,7.81399998 C8.30433332,6.85349998 9.3309969,6.08923454 10.3115751,6.00728067 L10.484,5.99999998 L22.484,5.99999998 Z M22.484,6.99999998 L10.484,6.99999998 C9.89599999,6.99999998 9.20433777,7.47301331 8.90577895,8.05886458 L8.84799999,8.18599998 L6.04799998,15.186 C5.94399997,15.445 5.93999997,15.675 6.03699998,15.819 C6.12199998,15.944 6.2729722,15.9863611 6.40658331,15.9970092 L6.48399998,16 L18.484,16 C19.0617334,16 19.7657778,15.5174045 20.061968,14.939219 L20.119,14.814 L22.919,7.81399998 C23.023,7.55499998 23.027,7.32399998 22.93,7.18099998 C22.828,7.03099998 22.631,6.99999998 22.484,6.99999998 Z M0.49999995,15 L2.49999995,15 C2.77599996,15 2.99999995,15.224 2.99999995,15.5 C2.99999995,15.7453333 2.8230123,15.9495803 2.58983809,15.9919397 L2.49999995,16 L0.49999995,16 C0.223999951,16 -5.00000028e-08,15.776 -5.00000028e-08,15.5 C-5.00000028e-08,15.2546667 0.176987605,15.0504198 0.410161816,15.0080604 L0.49999995,15 L2.49999995,15 Z M17.459845,12.1700082 L17.513,12.243 L19.013,14.744 C19.155,14.981 19.079,15.288 18.842,15.43 C18.761,15.478 18.672,15.501 18.585,15.501 C18.4433334,15.501 18.3051389,15.4405833 18.2086111,15.3301667 L18.156,15.258 L16.656,12.758 C16.514,12.521 16.59,12.214 16.827,12.072 C17.0367778,11.9448889 17.3034445,11.9916049 17.459845,12.1700082 Z M11.49,12.21 C11.6331111,12.4091111 11.6079259,12.6785432 11.4425377,12.848332 L11.374,12.907 L7.87399998,15.407 C7.78599998,15.47 7.68499998,15.5 7.58399998,15.5 C7.42799998,15.5 7.27499998,15.427 7.17699998,15.29 C7.03388887,15.0908889 7.05907405,14.8214568 7.22446226,14.651668 L7.29299998,14.593 L10.793,12.093 C11.018,11.932 11.331,11.984 11.49,12.21 Z M21.62,8.25499998 C21.7408889,8.46922221 21.6863704,8.73401233 21.5042031,8.88502468 L21.43,8.93599999 L14.33,12.936 C14.252,12.979 14.168,13 14.084,13 C13.9792,13 13.87504,12.96672 13.787904,12.90272 L13.726,12.849 L9.82599999,8.84899999 C9.63299999,8.65099999 9.63699999,8.33499998 9.83399999,8.14099998 C10.01,7.97033332 10.2800247,7.95374072 10.4727051,8.09122221 L10.541,8.14999998 L14.173,11.875 L20.938,8.06399998 C21.179,7.92799998 21.484,8.01499998 21.62,8.25499998 Z M3.49999995,9.99999999 C3.77599997,9.99999999 3.99999995,10.224 3.99999995,10.5 C3.99999995,10.776 3.77599997,11 3.49999995,11 L3.49999995,11 L0.49999995,11 C0.223999951,11 -5.00000037e-08,10.776 -5.00000037e-08,10.5 C-5.00000037e-08,10.224 0.223999951,9.99999999 0.49999995,9.99999999 L0.49999995,9.99999999 Z M5.49999995,5.99999998 C5.77599997,5.99999998 5.99999995,6.22399998 5.99999995,6.49999998 C5.99999995,6.74533331 5.82301231,6.94958022 5.58983809,6.99193962 L5.49999995,6.99999998 L0.49999995,6.99999998 C0.223999951,6.99999998 -5.0000005e-08,6.77599998 -5.0000005e-08,6.49999998 C-5.0000005e-08,6.25466664 0.176987605,6.05041973 0.410161816,6.00806033 L0.49999995,5.99999998 L5.49999995,5.99999998 Z" id="Combined-Shape"></path>
            </g>
        </g>
    </g>
</svg>