<svg xmlns="http://www.w3.org/2000/svg" xmlns:xlink="http://www.w3.org/1999/xlink" width="40px" height="100%" viewBox="0 0 24 24">
    <defs>
        <path id="email-send-3_a" d="M23.758 7.621c.286.422.319.993.09 1.565l-2.8 7C20.641 17.203 19.514 18 18.484 18h-12c-.543 0-1.007-.226-1.275-.621-.286-.422-.319-.993-.09-1.565l2.8-7C8.327 7.797 9.454 7 10.484 7h12c.543 0 1.007.226 1.274.621zm-.839 1.193c.104-.259.108-.49.011-.633-.102-.15-.299-.181-.446-.181h-12c-.63 0-1.379.543-1.636 1.186l-2.8 7c-.104.259-.108.489-.011.633.102.15.299.181.447.181h12c.619 0 1.383-.554 1.635-1.186l2.8-7zm-1.981.25a.501.501 0 0 1 .492.872l-7.1 4a.501.501 0 0 1-.604-.087l-3.9-4a.5.5 0 0 1 .715-.699l3.632 3.725 6.765-3.811zm-10.145 4.029a.498.498 0 0 1 .697.117.499.499 0 0 1-.116.697l-3.5 2.5a.499.499 0 0 1-.581-.814l3.5-2.5zm6.72.15l1.5 2.501a.5.5 0 1 1-.857.514l-1.5-2.5a.5.5 0 1 1 .857-.515zM.5 8a.5.5 0 0 1 0-1h5a.5.5 0 0 1 0 1h-5zm2 8a.5.5 0 0 1 0 1h-2a.5.5 0 0 1 0-1h2zm1-5a.5.5 0 0 1 0 1h-3a.5.5 0 0 1 0-1h3z"/>
    </defs>
    <g fill="none" fill-rule="evenodd">
        <mask id="email-send-3_b" fill="#fff">
            <use xlink:href="#email-send-3_a"/>
        </mask>
        <use fill="#3E3832" xlink:href="#email-send-3_a"/>
        <g fill="#3E3832" mask="url(#email-send-3_b)">
            <path d="M0 24h24V0H0z"/>
        </g>
    </g>
</svg>
