<svg role="presentation" focusable="false" width="20" height="20" fill="none" xmlns="http://www.w3.org/2000/svg"><path fill-rule="evenodd" clip-rule="evenodd" d="M19.387 2.41L17.62.643c-.786-.786-2.16-.786-2.947 0l-.589.59-12.197 12.2h-.001l-.003.002v.001c0 .001 0 .002-.002.002l-.207.207a.415.415 0 00-.11.2L.297 19.23a.417.417 0 00.501.5l5.388-1.264a.415.415 0 00.2-.11l.205-.205.002-.002s.002 0 .003-.002l.001-.002v-.001l.002-.002 11-10.997c0-.002.003-.003.005-.004l.006-.004a.022.022 0 00.003-.006l.004-.005 1.173-1.172.004-.003a.022.022 0 00.006-.004.016.016 0 00.003-.005l.001-.002.002-.003.582-.581a2.09 2.09 0 00-.002-2.946zm-2.072 3.84l-3.528-3.544.59-.59 3.537 3.536-.6.599zm-14.55 7.48l3.536 3.534L16.726 6.84l-3.528-3.545L2.766 13.729zm-.483.693l3.325 3.325-4.345 1.02 1.02-4.345zm16.221-9.36l.295-.295a1.254 1.254 0 000-1.768L17.03 1.232c-.473-.473-1.298-.472-1.768 0l-.295.295 3.536 3.536z" fill="#0067C5"/><mask id="endret_svg__a" maskUnits="userSpaceOnUse" x="0" y="0" width="20" height="20"><path fill-rule="evenodd" clip-rule="evenodd" d="M19.387 2.41L17.62.643c-.786-.786-2.16-.786-2.947 0l-.589.59-12.197 12.2h-.001l-.003.002v.001c0 .001 0 .002-.002.002l-.207.207a.415.415 0 00-.11.2L.297 19.23a.417.417 0 00.501.5l5.388-1.264a.415.415 0 00.2-.11l.205-.205.002-.002s.002 0 .003-.002l.001-.002v-.001l.002-.002 11-10.997c0-.002.003-.003.005-.004l.006-.004a.022.022 0 00.003-.006l.004-.005 1.173-1.172.004-.003a.022.022 0 00.006-.004.016.016 0 00.003-.005l.001-.002.002-.003.582-.581a2.09 2.09 0 00-.002-2.946zm-2.072 3.84l-3.528-3.544.59-.59 3.537 3.536-.6.599zm-14.55 7.48l3.536 3.534L16.726 6.84l-3.528-3.545L2.766 13.729zm-.483.693l3.325 3.325-4.345 1.02 1.02-4.345zm16.221-9.36l.295-.295a1.254 1.254 0 000-1.768L17.03 1.232c-.473-.473-1.298-.472-1.768 0l-.295.295 3.536 3.536z" fill="#fff"/></mask><g mask="url(#endret_svg__a)"><path fill="#3E3832" d="M0 0h20v20H0z"/></g></svg>