<svg xmlns="http://www.w3.org/2000/svg" width="25" height="24" viewBox="0 0 25 24">
    <path fill="#3E3832" fill-rule="evenodd" d="M21.5 21a.5.5 0 0 1 .5.5c0 .845.807 1.5 1.5 1.5a.5.5 0 0 1 0 1c-.797 0-1.535-.419-2-1.04-.465.621-1.203 1.04-2 1.04-.797 0-1.535-.419-2-1.04-.465.621-1.203 1.04-2 1.04-.797 0-1.535-.419-2-1.04-.465.621-1.203 1.04-2 1.04-.797 0-1.535-.419-2-1.04-.465.621-1.203 1.04-2 1.04-.797 0-1.535-.419-2-1.04-.465.621-1.203 1.04-2 1.04-.81 0-1.56-.432-2.023-1.071-.188.242-.424.46-.699.645a.498.498 0 1 1-.556-.83C.598 22.491 1 22.032 1 21.5a.5.5 0 0 1 1 0c0 .845.807 1.5 1.5 1.5S5 22.345 5 21.5a.5.5 0 0 1 1 0c0 .845.807 1.5 1.5 1.5S9 22.345 9 21.5a.5.5 0 0 1 1 0c0 .845.807 1.5 1.5 1.5s1.5-.655 1.5-1.5a.5.5 0 0 1 1 0c0 .845.807 1.5 1.5 1.5s1.5-.655 1.5-1.5a.5.5 0 0 1 1 0c0 .845.807 1.5 1.5 1.5s1.5-.655 1.5-1.5a.5.5 0 0 1 .5-.5zM16.999.985c3.039 0 5.21 1.255 6.113 3.533l.368.932a.5.5 0 0 1-.28.648l-2.324.92a.494.494 0 0 1-.383-.006l-.839-.362-.363.838a.498.498 0 0 1-.274.267l-4.184 1.659 3.001 7.57H23.5a.5.5 0 0 1 0 1h-5.918c-.027.005-.055.016-.082.016-.017 0-.029-.013-.046-.015-2.202.01-4.297.706-5.612 1.872a.498.498 0 0 1-.706-.042.5.5 0 0 1 .042-.706c1.375-1.218 3.384-1.961 5.591-2.098l-2.865-7.23-4.183 1.658a.499.499 0 0 1-.383-.006l-.839-.363-.363.839a.498.498 0 0 1-.274.267l-2.324.922a.515.515 0 0 1-.383-.006.497.497 0 0 1-.267-.275l-.369-.931c-.744-1.878-.392-3.832 1.017-5.651 1.18-1.522 3.098-2.885 5.426-3.877l-.189-.477a.5.5 0 1 1 .929-.369l.192.483c1.78-.653 3.536-1.01 5.105-1.01zm0 1c-1.583 0-3.385.381-5.209 1.105-2.374.94-4.313 2.275-5.463 3.758-.824 1.063-1.644 2.736-.878 4.67l.185.466 1.666-.661.479-1.107a.5.5 0 0 1 .658-.261l1.11.48 4.452-1.766.002-.001h.002l4.454-1.767.479-1.106a.496.496 0 0 1 .657-.261l1.107.479 1.668-.661-.185-.466c-.743-1.871-2.583-2.901-5.184-2.901z"/>
</svg>
