<svg xmlns="http://www.w3.org/2000/svg" width="24" height="24" viewBox="0 0 24 24">
    <path fill="#3E3832" fill-rule="evenodd" d="M1 1v20h9.5v1H.5a.5.5 0 0 1-.5-.5V.5A.5.5 0 0 1 .5 0h11a.512.512 0 0 1 .355.147l4.998 4.999A.51.51 0 0 1 17 5.5v4h-1V6h-4.5a.5.5 0 0 1-.5-.5V1H1zm11 .707V5h3.293L12 1.707zM17.5 11c3.584 0 6.5 2.916 6.5 6.5S21.084 24 17.5 24a6.508 6.508 0 0 1-6.5-6.5c0-3.584 2.916-6.5 6.5-6.5zm0 12c3.032 0 5.5-2.468 5.5-5.5S20.532 12 17.5 12a5.507 5.507 0 0 0-5.5 5.5c0 3.032 2.468 5.5 5.5 5.5zm2.727-6a.5.5 0 0 1 0 1H18v2.228a.5.5 0 0 1-1 0V18h-2.228a.5.5 0 0 1 0-1H17v-2.228a.5.5 0 0 1 1 0V17h2.227z"/>
</svg>
