<?xml version="1.0" encoding="UTF-8"?>
<svg width="23px" height="23px" viewBox="0 0 23 23" version="1.1" xmlns="http://www.w3.org/2000/svg" xmlns:xlink="http://www.w3.org/1999/xlink">
    <!-- Generator: Sketch 57.1 (83088) - https://sketch.com -->
    <title>Outline/17-files/file-remove</title>
    <desc>Created with Sketch.</desc>
    <g id="-----↳-Avtaleoversikt-veileder" stroke="none" stroke-width="1" fill="none" fill-rule="evenodd">
        <g id="Artboard" transform="translate(-385.000000, -270.000000)" fill="#0067C5">
            <g id="Outline/17-files/file-remove" transform="translate(385.000000, 270.000000)">
                <path d="M16.5,10 C20.084,10 23,12.915 23,16.5 C23,20.084 20.084,23 16.5,23 C12.916,23 10,20.084 10,16.5 C10,12.915 12.916,10 16.5,10 Z M11.4999999,-4.99993504e-08 C11.567,-4.99993504e-08 11.632,0.0139999501 11.692,0.0399999502 C11.753,0.0649999503 11.808,0.10199995 11.854,0.147999951 L11.854,0.147999951 L16.847,5.14199997 C16.896,5.18999997 16.936,5.24699997 16.962,5.31099997 C16.967,5.32299997 16.966,5.33699997 16.97,5.34999997 C16.985,5.39799997 16.9999999,5.44599997 16.9999999,5.49999995 L16.9999999,5.49999995 L16.9999999,9.49999995 L15.9999999,9.49999995 L15.9999999,5.99999995 L11.4999999,5.99999995 C11.224,5.99999995 10.9999999,5.77599997 10.9999999,5.49999995 L10.9999999,5.49999995 L10.9999999,0.99999995 L0.99999995,0.99999995 L0.99999995,21 L10.4999999,21 L10.4999999,22 L0.49999995,22 C0.223999951,22 -5.00000343e-08,21.776 -5.00000343e-08,21.5 L-5.00000343e-08,21.5 L-5.00000343e-08,0.49999995 C-5.00000343e-08,0.223999951 0.223999951,-4.99993504e-08 0.49999995,-4.99993504e-08 L0.49999995,-4.99993504e-08 Z M14.152,13.446 C13.957,13.251 13.64,13.251 13.445,13.446 C13.25,13.641 13.25,13.957 13.445,14.153 L13.445,14.153 L15.792,16.5 L13.445,18.846 C13.25,19.04 13.25,19.358 13.445,19.553 C13.543,19.65 13.671,19.699 13.799,19.699 C13.927,19.699 14.055,19.651 14.153,19.553 L14.153,19.553 L16.5,17.206 L18.846,19.553 C18.944,19.65 19.072,19.699 19.199,19.699 C19.327,19.699 19.455,19.651 19.553,19.553 C19.748,19.358 19.748,19.04 19.553,18.846 L19.553,18.846 L17.207,16.5 L19.553,14.153 C19.748,13.957 19.748,13.641 19.553,13.446 C19.357,13.251 19.041,13.251 18.846,13.446 L18.846,13.446 L16.499,15.793 Z M12,1.70699996 L12,4.99999997 L15.292,4.99999997 L12,1.70699996 Z" id="Combined-Shape"></path>
            </g>
        </g>
    </g>
</svg>