<svg role="presentation" focusable='false' width="24" height="24" xmlns="http://www.w3.org/2000/svg"><g fill="none"><path d="M12 0C5.383 0 0 5.384 0 12s5.383 12 12 12c6.616 0 12-5.384 12-12S18.616 0 12 0z" fill="#1C6937"/><path d="M10.725 10.651l.626.662a1 1 0 010 1.374l-.626.662L7.54 16.72a.867.867 0 01-1.275 0 .993.993 0 010-1.35L9.451 12 6.264 8.628a.993.993 0 010-1.349.867.867 0 011.275 0l3.186 3.372zm7 0l.626.662a1 1 0 010 1.374l-.626.662-3.186 3.372a.867.867 0 01-1.275 0 .993.993 0 010-1.35L16.451 12l-3.187-3.372a.993.993 0 010-1.349.867.867 0 011.275 0l3.186 3.372z" fill="#FFF"/></g></svg>