<svg xmlns="http://www.w3.org/2000/svg" role="presentation" focusable='false' width="24" height="24"><path fill="#3E3832" fill-rule="evenodd" d="M10.092 3.36a.48.48 0 01.48.48v9.12h9.12a.48.48 0 01.48.48c0 5.558-4.521 10.08-10.08 10.08-5.558 0-10.08-4.522-10.08-10.08S4.534 3.36 10.092 3.36zm-.48.972c-4.806.252-8.64 4.24-8.64 9.108 0 5.028 4.092 9.12 9.12 9.12 4.868 0 8.857-3.833 9.108-8.64h-9.108a.48.48 0 01-.48-.48V4.332zM12.972.48c5.559 0 10.08 4.522 10.08 10.08a.48.48 0 01-.48.48h-9.6a.48.48 0 01-.48-.48V.96a.48.48 0 01.48-.48zm.48.972v8.628h8.628c-.243-4.647-3.98-8.385-8.628-8.628z"/></svg>