<svg width="20" height="20" fill="none" xmlns="http://www.w3.org/2000/svg"><path fill-rule="evenodd" clip-rule="evenodd" d="M17.097 7.5h-2.083V5c0-2.757-2.243-5-5-5-2.758 0-5 2.243-5 5h.833A4.171 4.171 0 0110.014.833 4.171 4.171 0 0114.18 5v2.5H2.93a.417.417 0 00-.416.417v11.666c0 .23.186.417.416.417h14.167c.23 0 .417-.187.417-.417V7.917a.417.417 0 00-.417-.417zM3.347 19.167V8.333H16.68v10.834H3.347zm6.25-3.75v-2.211a.823.823 0 01-.417-.706.834.834 0 011.667 0c0 .305-.172.56-.417.706v2.21a.417.417 0 01-.833 0z" fill="#3E3832"/><mask id="hengelas-apen_svg__a" maskUnits="userSpaceOnUse" x="2" y="0" width="16" height="20"><path fill-rule="evenodd" clip-rule="evenodd" d="M17.097 7.5h-2.083V5c0-2.757-2.243-5-5-5-2.758 0-5 2.243-5 5h.833A4.171 4.171 0 0110.014.833 4.171 4.171 0 0114.18 5v2.5H2.93a.417.417 0 00-.416.417v11.666c0 .23.186.417.416.417h14.167c.23 0 .417-.187.417-.417V7.917a.417.417 0 00-.417-.417zM3.347 19.167V8.333H16.68v10.834H3.347zm6.25-3.75v-2.211a.823.823 0 01-.417-.706.834.834 0 011.667 0c0 .305-.172.56-.417.706v2.21a.417.417 0 01-.833 0z" fill="#fff"/></mask><g mask="url(#hengelas-apen_svg__a)"><path fill="#3E3832" d="M0 0h20v20H0z"/></g></svg>