<svg width="80" height="80" xmlns="http://www.w3.org/2000/svg" xmlns:xlink="http://www.w3.org/1999/xlink">
  <title>
    Group
  </title>
  <defs>
    <circle id="a" cx="40" cy="40" r="40"/>
  </defs>
  <g fill="none" fill-rule="evenodd">
    <g>
      <mask id="b" fill="#fff">
        <use xlink:href="#a"/>
      </mask>
      <g mask="url(#b)" fill="#CCE1F3">
        <path d="M0 80h80V0H0z"/>
      </g>
    </g>
    <path d="M62.548 59H17.452a.839.839 0 01-.84-.839V38.926c0-.463.377-.839.84-.839h45.096c.463 0 .84.376.84.839V58.16a.839.839 0 01-.84.839" fill="#593A32"/>
    <path fill="#333" d="M16.613 44.522h46.774V40.5H16.613zM46.452 26.022h-1.607v-1.158c0-.642-.49-1.162-1.096-1.162h-7.497c-.606 0-1.098.52-1.098 1.162v1.158h-1.606v-1.323c0-1.49 1.14-2.699 2.548-2.699h7.808c1.408 0 2.548 1.208 2.548 2.7v1.322z"/>
    <path d="M64.173 43.603c.456 0 .827-.36.827-.804V26.826a.816.816 0 00-.827-.804H15.827a.816.816 0 00-.827.804V42.8c0 .444.37.804.827.804h48.346z" fill="#723B30"/>
    <path d="M37.51 46.935c-1.294 0-2.349-.972-2.349-2.167V43.47c0-1.195 1.055-2.167 2.35-2.167h4.979c1.295 0 2.349.972 2.349 2.167v1.297c0 1.195-1.054 2.167-2.35 2.167H37.51z" fill="#333"/>
    <path d="M42.533 42.109h-5.066c-.828 0-1.5.61-1.5 1.362v1.298c0 .752.672 1.361 1.5 1.361h5.066c.828 0 1.5-.609 1.5-1.36v-1.3c0-.751-.672-1.361-1.5-1.361" fill="#F79221"/>
  </g>
</svg>