<svg xmlns="http://www.w3.org/2000/svg" width="120" height="120"><g fill="none" fill-rule="evenodd"><circle cx="60" cy="60" r="60" fill="#CCE1F3"/><path fill="#593A32" d="M93.752 87.2H26.648a1.25 1.25 0 0 1-1.248-1.251V57.25c0-.69.56-1.251 1.248-1.251h67.104c.689 0 1.248.56 1.248 1.251v28.7c0 .69-.56 1.251-1.248 1.251"/><path fill="#333" d="M25.4 65.6H95v-6H25.4zM69.8 38h-2.39v-1.728c0-.957-.73-1.733-1.631-1.733H54.622c-.9 0-1.632.776-1.632 1.733V38H50.6v-1.973c0-2.224 1.696-4.027 3.79-4.027h11.62c2.094 0 3.79 1.803 3.79 4.027V38z"/><path fill="#723B30" d="M96.169 64.23c.68 0 1.231-.538 1.231-1.2V39.2c0-.662-.552-1.2-1.231-1.2H24.23c-.68 0-1.231.538-1.231 1.2v23.83c0 .662.552 1.2 1.231 1.2h71.94z"/><path fill="#333" d="M56.496 69.2C54.569 69.2 53 67.75 53 65.967v-1.935c0-1.783 1.569-3.232 3.496-3.232h7.408c1.928 0 3.496 1.45 3.496 3.232v1.935c0 1.783-1.568 3.233-3.496 3.233h-7.408z"/><path fill="#F79221" d="M63.969 62H56.43c-1.232 0-2.231.91-2.231 2.032v1.937c0 1.122 1 2.031 2.231 2.031h7.538c1.232 0 2.231-.909 2.231-2.03v-1.938c0-1.122-1-2.032-2.231-2.032"/></g></svg>