<svg xmlns="http://www.w3.org/2000/svg" width="40" viewBox="0 0 40 41"><title>Lov</title><g fill="none" fill-rule="evenodd" stroke="#3E3832" stroke-linecap="round" stroke-linejoin="round" stroke-width="1.667"><path d="M17.521 40.13H.855v-1.739c0-.958.746-1.739 1.666-1.739h13.334c.921 0 1.666.781 1.666 1.74v1.738z"/><path d="M15.854 36.652H2.521v-1.739c0-.958.747-1.74 1.667-1.74h10c.921 0 1.666.782 1.666 1.74v1.74zm10.834-25.406l-9.167 9.565-5.833-6.086 9.167-9.566 5.833 6.087zm-4.583 4.783l17.083 17.826-17.084-17.826z"/><path d="M11.688 14.725l-.834-.87c-1.57-1.635-4.074.963-2.5 2.609l7.5 7.826c1.572 1.638 4.077-.965 2.5-2.609l-.833-.87m9.167-9.565l.833.87c1.572 1.638 4.077-.965 2.5-2.609l-7.5-7.826c-1.57-1.635-4.075.964-2.5 2.609l.834.87"/></g></svg>