<svg width="40" height="48" xmlns="http://www.w3.org/2000/svg"><g fill="none" fill-rule="evenodd"><path d="M5.294 0h32.353v9.804H5.294a4.902 4.902 0 110-9.804z" fill="#E7E9E9"/><path d="M38.627 7.843H5.294a2.945 2.945 0 01-2.941-2.941 2.945 2.945 0 012.941-2.941h33.333a.98.98 0 000-1.961H5.294A4.908 4.908 0 00.437 5.582a1.02 1.02 0 00-.045.3v36.275a4.908 4.908 0 004.902 4.902h33.333a.98.98 0 00.98-.98V8.823c0-.54-.438-.98-.98-.98z" fill="#D6897D" fill-rule="nonzero"/><path d="M28.824 37.255H11.176a.98.98 0 01-.98-.98c0-5.979 3.15-8.867 6.202-10.065a5.871 5.871 0 01-2.28-4.641A5.89 5.89 0 0120 15.686a5.89 5.89 0 015.882 5.883 5.871 5.871 0 01-2.28 4.64c3.053 1.197 6.202 4.087 6.202 10.066a.98.98 0 01-.98.98z" fill="#E7E9E9" fill-rule="nonzero"/><path d="M5.294 3.922a.98.98 0 000 1.96h31.373a.98.98 0 000-1.96H5.294z" fill="#C6C2BF"/></g></svg>