<svg xmlns="http://www.w3.org/2000/svg" width="25" height="24" viewBox="0 0 25 24">
    <path fill="#3E3832" fill-rule="evenodd" d="M14.793 10c.107 0 .211.034.297.098 2.42 1.784 4.923 5.228 4.923 7.902 0 4.093-2.542 6-8 6s-8-1.907-8-6c0-2.673 2.503-6.117 4.922-7.902A.497.497 0 0 1 9.232 10zm-.166 1H9.4c-2.135 1.63-4.387 4.72-4.387 7 0 2.473.832 5 7 5s7-2.527 7-5c0-2.281-2.252-5.37-4.386-7zm-1.114 1.5a.5.5 0 0 1 0 1c-.993 0-1.87.528-2.415 1.335l-.105.165h2.02a.5.5 0 0 1 .09.992l-.09.008h-2.412a3.49 3.49 0 0 0-.088.75l.01.125.013.125h2.477a.5.5 0 0 1 .09.992l-.09.008h-2.268c.454 1.173 1.522 2 2.768 2a.5.5 0 0 1 0 1c-1.724 0-3.18-1.173-3.74-2.802L9.71 18h-.697a.5.5 0 0 1-.09-.992l.09-.008h.524c-.005-.084-.024-.165-.024-.25 0-.171.013-.34.034-.504L9.584 16h-.571a.5.5 0 0 1-.09-.992l.09-.008h.865c.63-1.47 2.018-2.5 3.635-2.5zm2-4.5a.5.5 0 0 1 .09.992l-.09.008h-7a.5.5 0 0 1-.09-.992L8.513 8h7zM12.434.233l.043.081.81 2.024 3.029-1.298a.501.501 0 0 1 .613.737c-.019.029-1.916 2.899-1.916 4.723a.5.5 0 0 1-.41.492l-.09.008h-5a.5.5 0 0 1-.5-.5c0-1.824-1.897-4.694-1.916-4.723a.5.5 0 0 1 .524-.765l.088.029 3.029 1.297.81-2.024c.141-.35.684-.378.886-.08zm-.421 1.613l-.536 1.339a.5.5 0 0 1-.566.304l-.095-.03-2.096-.898c.471.88 1.015 2.062 1.214 3.146L9.979 6h4.067c.134-1.062.65-2.261 1.13-3.192l.13-.247-2.096.898a.498.498 0 0 1-.625-.202l-.036-.072-.536-1.339z"/>
</svg>
