<svg width="40" height="40" xmlns="http://www.w3.org/2000/svg"><path d="M24.167 40h-8.334a.834.834 0 01-.833-.833V28.658l-9.095 5.254a.844.844 0 01-.632.083.826.826 0 01-.506-.388L.6 26.39a.83.83 0 01.305-1.138L10 20 .905 14.745A.834.834 0 01.6 13.607L4.767 6.39a.823.823 0 01.505-.388.84.84 0 01.633.083L15 11.337V.833c0-.46.373-.833.833-.833h8.334c.46 0 .833.373.833.833v10.505l9.098-5.253a.844.844 0 01.634-.083.828.828 0 01.505.388l4.166 7.217a.83.83 0 01-.305 1.138L30 20l9.098 5.252a.829.829 0 01.303 1.138l-4.166 7.217a.823.823 0 01-.505.388.838.838 0 01-.633-.083L25 28.658v10.509c0 .46-.373.833-.833.833zm-7.5-1.667h6.666V27.215a.834.834 0 011.25-.722l9.627 5.559 3.333-5.774-9.626-5.556a.834.834 0 010-1.444l9.626-5.56-3.333-5.773-9.627 5.558a.834.834 0 01-1.25-.722V1.668h-6.666V12.78a.834.834 0 01-1.25.722L5.793 7.945 2.46 13.718l9.623 5.56a.834.834 0 010 1.444L2.46 26.278l3.333 5.774 9.624-5.559a.834.834 0 011.25.722v11.118z" fill="#3E3832" fill-rule="evenodd"/></svg>