<svg width="24" height="24" xmlns="http://www.w3.org/2000/svg"><g fill="none" fill-rule="evenodd"><path d="M23.98 12.05a11.92 11.92 0 11-23.85 0 11.92 11.92 0 0123.85 0" fill="#B7B1A9"/><path d="M11 5.47c-1.16-1.55.57-3.28 2.11-2.11 1.16 1.54-.57 3.27-2.11 2.1m.8 10.16v-9.4h-.63c-.96 0-2.02 0-2.43 1.3L7.19 12.4c-.1.36.1.76.46.87.34.1.68-.06.83-.37l1.1-3.6c.04-.18.23-.28.41-.22.17.04.25.21.23.37.02 0-1.63 5.35-1.88 6.17h1.8v4.4c0 .46.37.83.83.83.46 0 .83-.37.83-.83v-4.4zm1.42-9.4h-.92v13.84a.83.83 0 001.65-.03V9.41l.02-.02a.28.28 0 01.27-.26c.15 0 .28.13.28.28v3.33c0 .32.29.58.64.58.35 0 .64-.26.64-.58V8.46c0-1.25-1.34-2.17-2.58-2.24" fill="#FFF"/></g></svg>
