<svg xmlns="http://www.w3.org/2000/svg" width="300" height="94" viewBox="0 0 396 94"><g fill="none"><circle cx="139.5" cy="27.5" r="18.5" fill="#FFBD66"/><path fill="#78706A" d="M301.652 0L359 78H228z"/><path fill="#B7B1A9" d="M338.53 50.21l.054.278-19.412-17.833-1.834 13.219-6.818-10.834-7.42 7.81-10.226-6.23-21.2 15.666 11.915-23.03-12.206 2.324L301.313 0z"/><path fill="#78706A" d="M117.652 9L175 87H44z"/><path fill="#B7B1A9" d="M154.53 59.21l.054.278-19.412-17.833-1.834 13.219-6.818-10.834-7.42 7.81-10.226-6.23-21.2 15.666 11.915-23.03-12.206 2.324L117.313 9z"/><path fill="#FFF" d="M100.823 35.899a6.394 6.394 0 011.394 3.998c0 3.533-2.846 6.397-6.36 6.397a6.326 6.326 0 01-4.76-2.157C88.864 46.52 85.745 48 82.294 48 75.505 48 70 42.272 70 35.207c0-7.066 5.505-12.795 12.294-12.795 2.31 0 4.47.663 6.316 1.816C90.016 21.143 93.112 19 96.706 19c4.917 0 8.903 4.01 8.903 8.955a8.962 8.962 0 01-4.786 7.944zm183.565-8.518c-.38 3.167-3.061 5.62-6.313 5.62-3.163 0-5.786-2.323-6.276-5.367-.42.16-.877.248-1.353.248-2.107 0-3.816-1.719-3.816-3.838 0-.798.243-1.54.657-2.153-4.629-.318-8.287-4.197-8.287-8.935C259 8.01 262.986 4 267.902 4c3.2 0 6.005 1.698 7.574 4.248.878-2.476 3.23-4.248 5.992-4.248 3.51 0 6.358 2.863 6.358 6.396 0 .176-.007.35-.02.521a8.926 8.926 0 011.292-.093c4.917 0 8.902 4.009 8.902 8.955 0 4.947-3.985 8.956-8.902 8.956a8.822 8.822 0 01-4.71-1.354zm51 16c-.38 3.167-3.061 5.62-6.313 5.62-3.163 0-5.786-2.323-6.276-5.367-.42.16-.877.248-1.353.248-2.107 0-3.816-1.719-3.816-3.838 0-.798.243-1.54.657-2.153-4.629-.318-8.287-4.197-8.287-8.935 0-4.946 3.986-8.956 8.902-8.956 3.2 0 6.005 1.698 7.574 4.248.878-2.476 3.23-4.248 5.992-4.248 3.51 0 6.358 2.863 6.358 6.396 0 .176-.007.35-.02.521a8.926 8.926 0 011.292-.093c4.917 0 8.902 4.009 8.902 8.955 0 4.947-3.985 8.956-8.902 8.956a8.822 8.822 0 01-4.71-1.354z"/><path fill="#CDE7D8" d="M0 94h256.888c-10.042-1.481-28.248-3.446-54.62-5.895-39.56-3.673-58.405-10.105-99-10.105C76.203 78 41.78 83.333 0 94z"/><path fill="#6AB889" d="M137.405 94H396c-21.052-14.68-57.181-24.842-108.388-30.488C236.405 57.866 186.336 68.03 137.405 94z"/><g transform="translate(170 28)"><path fill="#59514B" d="M8.696 37.333h2.608L12.174 56H7.826z"/><mask id="natur_svg__a" fill="#fff"><use/></mask><use fill="#117938"/><g fill="#117938" mask="url(#natur_svg__a)"><path d="M-38.26 75.485h97v-95h-97z"/></g></g><g transform="translate(333 51)"><path fill="#59514B" d="M5.652 24h1.696l.565 12H5.087z"/><mask id="natur_svg__b" fill="#fff"><use/></mask><use fill="#117938"/><g fill="#117938" mask="url(#natur_svg__b)"><path d="M-24.87 48.455h63v-61h-63z"/></g></g><g transform="translate(304 44)"><path fill="#59514B" d="M5.652 24h1.696l.565 12H5.087z"/><mask id="natur_svg__c" fill="#fff"><use/></mask><use fill="#117938"/><g fill="#117938" mask="url(#natur_svg__c)"><path d="M-24.87 48.455h63v-61h-63z"/></g></g><g transform="translate(60 55)"><path fill="#59514B" d="M5.652 24h1.696l.565 12H5.087z"/><mask id="natur_svg__d" fill="#fff"><use/></mask><use fill="#117938"/><g fill="#117938" mask="url(#natur_svg__d)"><path d="M-24.87 48.455h63v-61h-63z"/></g></g><g transform="translate(84 49)"><path fill="#59514B" d="M5.652 24h1.696l.565 12H5.087z"/><mask id="natur_svg__e" fill="#fff"><use/></mask><use fill="#117938"/><g fill="#117938" mask="url(#natur_svg__e)"><path d="M-24.87 48.455h63v-61h-63z"/></g></g></g></svg>