<svg xmlns="http://www.w3.org/2000/svg" xmlns:xlink="http://www.w3.org/1999/xlink" width="60" height="38"><defs><path id="navikon_svg__a" d="M4.998 9.762V.155H.126v9.607h4.872z"/></defs><g fill="none" fill-rule="evenodd"><path fill="#C30000" d="M27.95 37.987c-10.403 0-18.839-8.503-18.839-18.992C9.111 8.505 17.547 0 27.95 0c10.407 0 18.843 8.505 18.843 18.995 0 10.489-8.436 18.992-18.843 18.992zM0 27.288l3.85-9.608h3.701l-3.846 9.608zm47.52 0l3.8-9.608h2.018l-3.801 9.608z"/><g transform="translate(54.87 17.525)"><mask id="navikon_svg__b" fill="#fff"><use xlink:href="#navikon_svg__a"/></mask><path fill="#C30000" d="M.126 9.762l3.8-9.607h1.072L1.197 9.762z" mask="url(#navikon_svg__b)"/></g><path fill="#FEFEFE" d="M44.02 17.68h-3.348s-.231 0-.313.206l-1.853 5.72-1.852-5.72c-.082-.206-.314-.206-.314-.206H29.9a.26.26 0 00-.256.257v1.943c0-1.541-1.627-2.2-2.58-2.2-2.132 0-3.56 1.416-4.004 3.57-.024-1.43-.142-1.94-.524-2.465-.175-.257-.428-.473-.704-.651-.568-.336-1.079-.454-2.175-.454H18.37s-.233 0-.315.206l-1.171 2.926v-2.875a.259.259 0 00-.255-.257H13.65s-.23 0-.313.206l-1.218 3.042s-.122.304.156.304h1.145v5.798c0 .144.113.258.256.258h2.953a.257.257 0 00.255-.258v-5.798h1.15c.661 0 .801.018 1.058.14a.733.733 0 01.37.315c.156.295.195.65.195 1.696v3.647c0 .144.115.258.256.258h2.83s.32 0 .447-.319l.627-1.562c.834 1.177 2.207 1.88 3.912 1.88h.373s.322 0 .45-.318l1.092-2.727v2.788c0 .144.117.258.256.258h2.889s.319 0 .447-.319c0 0 1.155-2.891 1.16-2.913h.001c.045-.24-.257-.24-.257-.24h-1.03v-4.963l3.244 8.116c.127.319.446.319.446.319h3.413s.321 0 .448-.319l3.597-8.978c.124-.31-.236-.31-.236-.31zm-14.376 6.135h-1.94c-.773 0-1.402-.63-1.402-1.41a1.41 1.41 0 011.401-1.413h.543c.77 0 1.398.635 1.398 1.413v1.41z"/></g></svg>