<svg xmlns="http://www.w3.org/2000/svg" xmlns:xlink="http://www.w3.org/1999/xlink" width="40" viewBox="0 0 40 40"><title></title><defs><path id="nokkelPunktForAvtale_svg__a" d="M39.167 0c.46 0 .833.373.833.833v5a.84.84 0 01-.243.59l-1.424 1.422V10c0 .46-.373.833-.833.833h-2.155l-.345.345v2.155c0 .46-.373.834-.833.834h-2.155l-.345.345v2.155c0 .46-.374.833-.834.833h-2.155l-4.811 4.813A12.33 12.33 0 0125 27.5C25 34.393 19.393 40 12.5 40S0 34.393 0 27.5 5.607 15 12.5 15c1.808 0 3.552.382 5.188 1.135L33.577.245a.834.834 0 01.59-.245h5zm-.834 5.488V1.667h-3.821L18.445 17.733a.836.836 0 01-.973.15 10.698 10.698 0 00-4.972-1.216c-5.973 0-10.833 4.86-10.833 10.833S6.527 38.333 12.5 38.333s10.833-4.86 10.833-10.833c0-1.743-.41-3.415-1.216-4.972a.832.832 0 01.15-.973l5.476-5.477a.834.834 0 01.59-.245H30v-1.666c0-.222.088-.434.243-.589l.834-.833a.834.834 0 01.59-.245h1.666v-1.667c0-.221.089-.433.244-.588l.833-.833a.834.834 0 01.59-.245h1.667V7.5a.83.83 0 01.243-.588l1.423-1.424zM9.167 27.5a3.337 3.337 0 013.333 3.333 3.337 3.337 0 01-3.333 3.334 3.337 3.337 0 01-3.334-3.334A3.337 3.337 0 019.167 27.5zm0 5a1.67 1.67 0 001.666-1.667 1.67 1.67 0 00-1.666-1.666A1.67 1.67 0 007.5 30.833 1.67 1.67 0 009.167 32.5z"/></defs><g fill="none" fill-rule="evenodd"><mask id="nokkelPunktForAvtale_svg__b" fill="#fff"><use xlink:href="#nokkelPunktForAvtale_svg__a"/></mask><use fill="#3E3832" xlink:href="#nokkelPunktForAvtale_svg__a"/><g fill="#3E3832" mask="url(#nokkelPunktForAvtale_svg__b)"><path d="M0 40h40V0H0z"/></g></g></svg>