<svg xmlns="http://www.w3.org/2000/svg" width="25" height="24" viewBox="0 0 25 24">
    <path fill="#3E3832" fill-rule="evenodd" d="M6.252 3.36c1.261 0 2.439.624 3.152 1.651.717-.14 1.432-.211 2.128-.211 5.072 0 9.227 3.363 9.567 7.601.575-.188.993-.724.993-1.361a.48.48 0 0 1 .96 0c0 1.167-.839 2.14-1.945 2.354-.17 2.735-1.926 5.113-4.505 6.484l-.27.138v3.024a.48.48 0 0 1-.952.086l-.008-.086v-2.606a10.991 10.991 0 0 1-3.84.686 11.06 11.06 0 0 1-3.44-.548l-.4-.14v2.608a.48.48 0 0 1-.952.086l-.008-.086v-3.029c-1.595-.785-2.925-1.944-3.78-3.397l-.165-.294H.492a.48.48 0 0 1-.472-.394l-.008-.086V12a.48.48 0 0 1 .394-.472l.086-.008h1.59c.419-1.984 1.708-3.784 3.603-5.023A2.905 2.905 0 0 0 4.332 4.71a.479.479 0 0 1 0-.832 3.858 3.858 0 0 1 1.92-.517zM5.53 4.414a3.864 3.864 0 0 1 1.165 2.247.483.483 0 0 1-.226.479c-1.939 1.172-3.217 2.97-3.51 4.931a.482.482 0 0 1-.387.401l-.087.008H.972v2.88h2.11c.184 0 .352.106.433.272 1.322 2.75 4.47 4.528 8.017 4.528 4.764 0 8.64-3.23 8.64-7.2 0-4.582-5.21-8.221-10.89-6.942a.479.479 0 0 1-.524-.232c-.63-1.118-1.99-1.7-3.23-1.372zm.243 6.146a.96.96 0 1 1 0 1.92.96.96 0 0 1 0-1.92zM16.14 8.736a.48.48 0 1 1-.576.768 6.716 6.716 0 0 0-4.48-1.328.487.487 0 0 1-.512-.447.481.481 0 0 1 .448-.51 7.695 7.695 0 0 1 5.12 1.517z"/>
</svg>
