<svg width="23" height="23" viewBox="0 0 16 16" fill="none" xmlns="http://www.w3.org/2000/svg"><path fill-rule="evenodd" clip-rule="evenodd" d="M8.413 3.685l-.282.541c-.307.59-1.343 1.107-2.215 1.107-.298 0-1.012-.269-1.525-.512.436-1.817 1.85-3.154 3.525-3.154 1.781 0 3.268 1.509 3.598 3.502-.189.078-.425.164-.598.164-1.079 0-1.653-.161-2.2-1.118l-.303-.53zM10 11.1l3.118 1.113a2.339 2.339 0 011.548 2.197V16H1.333v-1.59c0-.984.622-1.867 1.548-2.198L6 11.099V9.687C4.952 8.923 4.25 7.559 4.25 6c0-.169.01-.335.026-.499.492.222 1.208.499 1.64.499.918 0 1.924-.437 2.493-1.036C9.05 5.824 9.813 6 10.916 6c.222 0 .454-.066.661-.142l.003.06c.001.027.003.054.003.082 0 1.475-.628 2.779-1.583 3.562v1.537z" fill="#0067C5"/></svg>