<svg width="24" height="24" fill="none" xmlns="http://www.w3.org/2000/svg"><path fill-rule="evenodd" clip-rule="evenodd" d="M.857 13h22.286c.473 0 .857.41.857.917v9.166c0 .507-.384.917-.857.917H.857C.384 24 0 23.59 0 23.083v-9.166C0 13.41.384 13 .857 13z" fill="#99BDCD"/><path fill-rule="evenodd" clip-rule="evenodd" d="M8 11.972L19.972 0 24 4.028 12.028 16 8 11.972z" fill="#A13A28"/><path fill-rule="evenodd" clip-rule="evenodd" d="M6 18l1.975-6L12 16.025 6 18z" fill="#FFD399"/><path fill-rule="evenodd" clip-rule="evenodd" d="M6 18l.658-2L8 17.342 6 18z" fill="#3E3832"/><path fill-rule="evenodd" clip-rule="evenodd" d="M19.988 0L24 4.012 22.012 6 18 1.988 19.988 0z" fill="#C86151"/></svg>