<svg width="20" height="20" viewBox="0 0 20 20" fill="none" xmlns="http://www.w3.org/2000/svg"><path fill-rule="evenodd" clip-rule="evenodd" d="M7.51 5.416c0 .23.187.417.417.417h4.167c.23 0 .416-.187.416-.417 0-1.508 1.557-3.874 1.596-3.934l.001-.001a.416.416 0 00-.51-.615l-2.525 1.082-.675-1.687c-.127-.316-.647-.316-.774 0l-.675 1.687L6.424.868a.417.417 0 00-.51.613c.04.06 1.596 2.427 1.596 3.935zm1.503-2.534a.418.418 0 00.55-.228l.447-1.116.447 1.116a.414.414 0 00.55.228l1.748-.748c-.429.8-.929 1.9-1.05 2.866h-3.39c-.12-.966-.62-2.066-1.049-2.866l1.747.748zm-1.92 3.784a.417.417 0 000 .834h5.834a.417.417 0 000-.834H7.094zm5.482 1.749a.414.414 0 00-.248-.082H7.693a.414.414 0 00-.248.082C5.43 9.902 3.344 12.772 3.344 15c0 3.41 2.118 5 6.666 5 4.549 0 6.667-1.59 6.667-5 0-2.229-2.086-5.099-4.102-6.585zM10.01 19.166c-5.14 0-5.833-2.105-5.833-4.166 0-1.9 1.877-4.475 3.656-5.834h4.356c1.778 1.359 3.655 3.933 3.655 5.834 0 2.06-.694 4.166-5.834 4.166zm1.25-6.25a.834.834 0 10-.833.833c.92 0 1.667.748 1.667 1.667 0 .775-.534 1.421-1.25 1.608v.476a.417.417 0 01-.834 0v-.476a1.665 1.665 0 01-1.25-1.608.417.417 0 01.834 0c0 .46.374.834.833.834a.835.835 0 000-1.667c-.92 0-1.667-.747-1.667-1.667 0-.774.534-1.42 1.25-1.607v-.476a.417.417 0 01.834 0v.476c.716.186 1.25.833 1.25 1.607a.417.417 0 01-.834 0z" fill="#3E3832"/></svg>