<svg width="40" height="29" xmlns="http://www.w3.org/2000/svg"><g transform="translate(0 .667)" fill="none" fill-rule="evenodd"><path d="M39.167 0H.833A.834.834 0 000 .833V27.5c0 .46.373.833.833.833H7.5c.46 0 .833-.373.833-.833v-1.25c0-1.148.935-2.083 2.084-2.083 1.148 0 2.083.935 2.083 2.083v1.25c0 .46.373.833.833.833h13.334c.46 0 .833-.373.833-.833v-1.25c0-1.148.935-2.083 2.083-2.083 1.149 0 2.084.935 2.084 2.083v1.25c0 .46.373.833.833.833h6.667c.46 0 .833-.373.833-.833V.833A.834.834 0 0039.167 0z" fill="#9BD0B0" fill-rule="nonzero"/><ellipse fill="#E0F5FB" cx="10.037" cy="8.333" rx="3.37" ry="3.333"/><path d="M16.814 20c0-3.682-3.018-6.667-6.74-6.667-3.723 0-6.74 2.985-6.74 6.667h13.48z" fill="#E0F5FB"/><path d="M20.682 18.333h13.636c.377 0 .682.373.682.834 0 .46-.305.833-.682.833H20.682c-.377 0-.682-.373-.682-.833 0-.46.305-.834.682-.834zM20.682 15h13.636c.377 0 .682.373.682.833 0 .46-.305.834-.682.834H20.682c-.377 0-.682-.373-.682-.834 0-.46.305-.833.682-.833zM20.682 11.667h13.636c.377 0 .682.373.682.833 0 .46-.305.833-.682.833H20.682c-.377 0-.682-.373-.682-.833 0-.46.305-.833.682-.833zM20.667 6.667H26c.368 0 .667.373.667.833 0 .46-.299.833-.667.833h-5.333c-.369 0-.667-.373-.667-.833 0-.46.298-.833.667-.833z" fill="#3E3832"/></g></svg>