<svg width="24" height="23" xmlns="http://www.w3.org/2000/svg" xmlns:xlink="http://www.w3.org/1999/xlink"><defs><path d="M2.5 7.644h19a2.504 2.504 0 012.495 2.336l.005.164v6a2.503 2.503 0 01-2.336 2.494l-.164.006H19v4.5a.5.5 0 01-.41.492l-.09.008h-13a.501.501 0 01-.493-.41L5 23.144v-4.5H2.5a2.503 2.503 0 01-2.494-2.336L0 16.144v-6A2.504 2.504 0 012.336 7.65l.164-.006h19zm15.5 8H6v7h12v-7zM19.722 1v5.084l-14.609.03V1h14.61z" id="a"/></defs><g transform="translate(0 -1)" fill="none" fill-rule="evenodd"><mask id="b" fill="#fff"><use xlink:href="#a"/></mask><use fill="#3E3832" xlink:href="#a"/><g mask="url(#b)" fill="#0067C5"><path d="M0 24h24V0H0z"/></g></g></svg>