<svg xmlns="http://www.w3.org/2000/svg" width="24" height="24" viewBox="0 0 24 24">
    <path fill="#3E3832" fill-rule="evenodd" d="M21.5 8c1.379 0 2.5 1.122 2.5 2.5v6c0 1.378-1.121 2.5-2.5 2.5H19v4.5a.5.5 0 0 1-.5.5h-13a.5.5 0 0 1-.5-.5V19H2.5A2.503 2.503 0 0 1 0 16.5v-6C0 9.122 1.121 8 2.5 8h19zM18 23v-7H6v7h12zm5-6.5v-6c0-.827-.673-1.5-1.5-1.5h-19C1.673 9 1 9.673 1 10.5v6c0 .827.673 1.5 1.5 1.5H5v-2.5a.5.5 0 0 1 .5-.5h13a.5.5 0 0 1 .5.5V18h2.5c.827 0 1.5-.673 1.5-1.5zM5.5 7a.5.5 0 0 1-.5-.5v-4a.5.5 0 0 1 .5-.5h10a.512.512 0 0 1 .355.147l2.998 2.999A.51.51 0 0 1 19 5.5v1a.5.5 0 0 1-1 0V6h-2.5a.5.5 0 0 1-.5-.5V3H6v3.5a.5.5 0 0 1-.5.5zM16 3.707V5h1.293L16 3.707zM3.5 10c.827 0 1.5.673 1.5 1.5S4.327 13 3.5 13 2 12.327 2 11.5 2.673 10 3.5 10zm0 2a.5.5 0 1 0-.002-1.002A.5.5 0 0 0 3.5 12zm13 5a.5.5 0 0 1 0 1h-9a.5.5 0 0 1 0-1h9zm0 2a.5.5 0 0 1 0 1h-9a.5.5 0 0 1 0-1h9zm0 2a.5.5 0 0 1 0 1h-9a.5.5 0 0 1 0-1h9z"/>
</svg>
