<svg width="7" height="7" viewBox="0 0 7 7" fill="none" xmlns="http://www.w3.org/2000/svg"><path fill="#fff" d="M0 0h7v7H0z"/><path d="M1.785 4.264a1.072 1.072 0 01-.847-.385 1.461 1.461 0 01-.245-.455 2.092 2.092 0 01-.084-.616c0-.229.028-.432.084-.609.06-.177.142-.327.245-.448a1.072 1.072 0 01.847-.385c.168 0 .322.033.462.098.144.065.268.161.37.287.108.121.192.27.253.448.06.177.09.38.09.609 0 .229-.03.434-.09.616a1.4 1.4 0 01-.252.455 1.009 1.009 0 01-.371.287c-.14.065-.294.098-.462.098zm0-.658c.093 0 .175-.056.245-.168.07-.112.105-.322.105-.63 0-.154-.01-.28-.028-.378a.843.843 0 00-.077-.245.301.301 0 00-.112-.126.27.27 0 00-.266 0 .301.301 0 00-.112.126.843.843 0 00-.077.245 2.084 2.084 0 00-.028.378c0 .308.035.518.105.63.07.112.151.168.245.168zm.168 2.478l2.436-4.718h.672L2.625 6.084h-.672zm3.262 0a1.072 1.072 0 01-.847-.385 1.461 1.461 0 01-.245-.455 2.092 2.092 0 01-.084-.616c0-.229.028-.432.084-.609.06-.177.142-.327.245-.448a1.072 1.072 0 01.847-.385c.168 0 .322.033.462.098.144.065.268.161.37.287.108.121.192.27.253.448.06.177.09.38.09.609 0 .229-.03.434-.09.616a1.4 1.4 0 01-.252.455 1.009 1.009 0 01-.371.287c-.14.065-.294.098-.462.098zm0-.658c.093 0 .175-.056.245-.168.07-.112.105-.322.105-.63 0-.154-.01-.28-.028-.378a.843.843 0 00-.077-.245.301.301 0 00-.112-.126.27.27 0 00-.266 0 .301.301 0 00-.112.126.843.843 0 00-.077.245 2.084 2.084 0 00-.028.378c0 .308.035.518.105.63.07.112.151.168.245.168z" fill="#3E3832"/></svg>