<svg width="40" height="31" viewBox="0 0 40 31" xmlns="http://www.w3.org/2000/svg">
  <title>
    sedler
  </title>
  <g fill="none" fill-rule="evenodd">
    <path fill="#E3B0A8" d="M3 0h37v20H3z"/>
    <path fill="#F1D8D4" d="M32.3 0h4.6v20h-4.6z"/>
    <path fill="#C2EAF7" d="M1.5 1.5h37v20h-37z"/>
    <path fill="#E0F5FB" d="M30.7 1.5h4.6v20h-4.6z"/>
    <path fill="#9BD0B0" d="M0 3h36.9v20H0z"/>
    <path fill="#CDE7D8" d="M29.2 3h4.6v20h-4.6z"/>
    <path d="M4.6 12.2v-6h1L9 11V6.3h1v6H9L5.5 7.4v4.7h-.9zm6.7-2.9a3 3 0 01.9-2.3c.6-.6 1.4-.8 2.3-.8.7 0 1.2 0 1.8.3.5.3.9.7 1.1 1.1.3.5.4 1 .4 1.6 0 .6-.1 1.2-.4 1.7-.3.4-.7.8-1.2 1-.5.3-1 .4-1.7.4-.6 0-1.2-.1-1.7-.4-.5-.3-.9-.6-1.1-1.1a3 3 0 01-.4-1.5zm.9 0c0 .7.2 1.3.7 1.7.4.4 1 .6 1.6.6.7 0 1.3-.2 1.7-.6.5-.4.7-1 .7-1.8 0-.4-.1-.9-.3-1.2a2 2 0 00-.8-.9c-.4-.2-.8-.3-1.3-.3-.6 0-1.1.2-1.6.6-.5.4-.7 1-.7 2zm6.7 3v-6h1v3l3.4-3h1.2l-2.9 2.4 3 3.5h-1.2l-2.4-3-1.1 1v2h-1z" fill="#117938"/>
    <circle fill="#FECB86" cx="7.7" cy="24.6" r="6.2"/>
    <path d="M17 30.8a4.6 4.6 0 110-9.3 4.6 4.6 0 010 9.3zm0-3.1a1.5 1.5 0 100-3 1.5 1.5 0 000 3z" fill="#E7E9E9" fill-rule="nonzero"/>
  </g>
</svg>
