<svg width="40" height="40" viewbox="0 0 24 11" xmlns="http://www.w3.org/2000/svg">Sende epost<path d="M22.484 0c.543 0 1.007.226 1.274.621.257.38.31.88.15 1.394l-.06.171-2.8 7c-.384.96-1.411 1.725-2.392 1.807l-.172.007h-12c-.543 0-1.007-.226-1.275-.621-.257-.38-.31-.88-.15-1.394l.06-.171 2.8-7C8.304.854 9.331.089 10.312.007L10.484 0h12zm0 1h-12c-.588 0-1.28.473-1.578 1.059l-.058.127-2.8 7c-.104.259-.108.489-.011.633.085.125.236.167.37.178l.077.003h12c.578 0 1.282-.483 1.578-1.06l.057-.126 2.8-7c.104-.259.108-.49.011-.633-.102-.15-.299-.181-.446-.181zM.5 9h2a.5.5 0 01.09.992L2.5 10h-2a.5.5 0 01-.09-.992L.5 9h2zm16.96-2.83l.053.073 1.5 2.501a.5.5 0 01-.804.586l-.053-.072-1.5-2.5a.5.5 0 01.804-.588zm-5.97.04c.143.2.118.469-.047.638l-.069.059-3.5 2.5a.499.499 0 01-.65-.755l.069-.059 3.5-2.5a.498.498 0 01.697.117zm10.13-3.955a.5.5 0 01-.116.63l-.074.051-7.1 4a.507.507 0 01-.542-.033l-.062-.054-3.9-4a.501.501 0 01.647-.758l.068.059 3.632 3.725 6.765-3.811a.501.501 0 01.682.191zM3.5 4a.5.5 0 010 1h-3a.5.5 0 010-1zm2-4a.5.5 0 01.09.992L5.5 1h-5A.5.5 0 01.41.008L.5 0h5z" fill="#3E3832" fill-rule="evenodd"/></svg>