<svg width="40" height="19" xmlns="http://www.w3.org/2000/svg" xmlns:xlink="http://www.w3.org/1999/xlink"><defs><path d="M37.473 11.667c.905 0 1.679.376 2.124 1.035.476.703.531 1.655.15 2.608L35.08 26.977C34.402 28.672 32.523 30 30.807 30h-20c-.905 0-1.679-.377-2.125-1.035-.477-.703-.532-1.655-.15-2.608l4.666-11.667c.68-1.695 2.559-3.023 4.275-3.023zm0 1.666h-20c-1.05 0-2.298.905-2.726 1.977L10.08 26.977c-.173.431-.18.815-.018 1.055.17.25.498.301.745.301h20c1.031 0 2.305-.923 2.725-1.976l4.666-11.667c.174-.432.18-.817.019-1.055-.17-.25-.499-.302-.744-.302zM4.167 26.667a.834.834 0 010 1.666H.833a.834.834 0 010-1.666zm23.878-4.88a.832.832 0 011.143.285l2.5 4.168a.833.833 0 11-1.428.857l-2.5-4.167a.833.833 0 01.285-1.143zm-10.057.035a.83.83 0 011.162.195.831.831 0 01-.193 1.161l-5.834 4.167a.832.832 0 01-1.162-.195.831.831 0 01.194-1.162zm16.909-6.715a.836.836 0 011.136.318.833.833 0 01-.316 1.135l-11.834 6.667a.836.836 0 01-1.007-.145l-6.5-6.667a.834.834 0 111.192-1.165l6.054 6.208zM5.833 18.333a.834.834 0 010 1.667h-5a.834.834 0 010-1.667zm3.334-6.666a.834.834 0 010 1.666H.833a.834.834 0 010-1.666z" id="sende-email_svg__a"/></defs><g transform="translate(0 -11)" fill="none" fill-rule="evenodd"><mask id="sende-email_svg__b" fill="#fff"><use xlink:href="#sende-email_svg__a"/></mask><use fill="#3E3832" xlink:href="#sende-email_svg__a"/><g mask="url(#sende-email_svg__b)" fill="#3E3832"><path d="M0 40h40V0H0z"/></g></g></svg>