<svg width="40" height="40" xmlns="http://www.w3.org/2000/svg"><g fill="none" fill-rule="evenodd"><path fill="#FFD399" d="M10 22.862L22.862 10 30 17.138 17.138 30z"/><path d="M2.665 2.665c3.832-3.833 10.387-3.49 14.64.763l5.525 5.525c.671.67.671 1.758 0 2.429L11.382 22.83a1.717 1.717 0 01-2.429 0l-5.525-5.525c-4.254-4.253-4.596-10.808-.763-14.64zm34.67 34.67c-3.832 3.833-10.387 3.49-14.64-.763l-5.525-5.525a1.717 1.717 0 010-2.429L28.618 17.17a1.717 1.717 0 012.429 0l5.525 5.525c4.254 4.253 4.596 10.808.763 14.64z" fill="#FFBD66"/><g transform="translate(5 5)" fill="#B26D14"><circle cx="4.167" cy=".833" r="1"/><circle cx="9.167" cy="2.5" r="1"/><circle cx="5.833" cy="5.833" r="1"/><circle cx=".833" cy="4.167" r="1"/><circle cx="2.5" cy="9.167" r="1"/><circle cx="7.5" cy="10.833" r="1"/><circle cx="10.833" cy="7.5" r="1"/></g><g transform="translate(23.333 23.333)" fill="#B26D14"><circle cx="4.167" cy=".833" r="1"/><circle cx="9.167" cy="2.5" r="1"/><circle cx="5.833" cy="5.833" r="1"/><circle cx=".833" cy="4.167" r="1"/><circle cx="2.5" cy="9.167" r="1"/><circle cx="7.5" cy="10.833" r="1"/><circle cx="10.833" cy="7.5" r="1"/></g></g></svg>