<svg xmlns="http://www.w3.org/2000/svg" role="presentation" focusable="false" width="25" height="24"><path fill="#3E3832" fill-rule="evenodd" d="M11.513 0c6.342 0 11.5 5.159 11.5 11.5S17.854 23 11.513 23 .013 17.841.013 11.5 5.171 0 11.513 0zm0 1c-5.79 0-10.5 4.71-10.5 10.5S5.723 22 11.513 22s10.5-4.71 10.5-10.5S17.302 1 11.513 1zm3 11.5c1.103 0 2 .897 2 2s-.897 2-2 2-2-.897-2-2 .897-2 2-2zm1.353-5.353a.5.5 0 010 .707l-8 8a.498.498 0 01-.707 0 .5.5 0 010-.707l8-8a.5.5 0 01.707 0zM14.513 13.5a1.001 1.001 0 000 2 1.001 1.001 0 000-2zm-6-7c1.103 0 2 .897 2 2s-.897 2-2 2-2-.897-2-2 .897-2 2-2zm0 1a1.001 1.001 0 000 2 1.001 1.001 0 000-2z"/></svg>