<svg width="40" height="40" xmlns="http://www.w3.org/2000/svg"><g fill="none" fill-rule="evenodd"><path d="M3.122 36.878c-4.31-4.31-4.136-11.471.388-15.995l9.216-9.216 15.607 15.607-9.216 9.216c-4.524 4.524-11.685 4.698-15.995.388z" fill="#DADE99"/><path d="M36.878 3.122c4.31 4.31 4.136 11.471-.388 15.995l-9.216 9.216-15.607-15.607 9.216-9.216c4.524-4.524 11.685-4.698 15.995-.388z" fill="#5EAEC7"/><path d="M22.352 6.031c3.1-3.38 7.928-3.616 10.76-.525.315.344.29.929-.053 1.305-.345.375-.88.402-1.196.058-2.202-2.406-5.957-2.22-8.367.408l-3.744 4.09a.896.896 0 01-.61.299.736.736 0 01-.587-.24c-.315-.344-.291-.929.053-1.305l3.744-4.09z" fill="#E0F5FB" fill-rule="nonzero"/></g></svg>