<svg width="24" height="24" xmlns="http://www.w3.org/2000/svg"><path d="M20.657 4.325a10.401 10.401 0 00-7.528-2.815c-2.867.1-5.49 1.319-7.385 3.432C4.391 6.451 3.51 8.331 3.15 10.406l-1.314-1.98A1 1 0 10.17 9.533c.171.259 2.85 4.3 3.029 4.552.466.556 1.195.507 1.58.021l3.474-3.954a1 1 0 00-1.504-1.32l-1.607 1.83c.306-1.673 1.011-3.181 2.091-4.385 1.529-1.704 3.648-2.688 5.966-2.769a8.459 8.459 0 016.094 2.279 8.434 8.434 0 012.697 5.92 8.432 8.432 0 01-2.278 6.093 8.44 8.44 0 01-5.919 2.697 1 1 0 00.033 2l.036-.001a10.43 10.43 0 007.313-3.332 10.42 10.42 0 002.815-7.527 10.432 10.432 0 00-3.333-7.312z" fill="#0067C5" fill-rule="evenodd"/></svg>