<svg width="24" height="24" viewBox="0 0 24 24" fill="none" xmlns="http://www.w3.org/2000/svg"><path fill-rule="evenodd" clip-rule="evenodd" d="M7.5 9a4.5 4.5 0 109 0 4.5 4.5 0 00-9 0zm8 0a3.5 3.5 0 11-7 0 3.5 3.5 0 017 0z" fill="#3E3832"/><path fill-rule="evenodd" clip-rule="evenodd" d="M0 15v8.5c0 .276.244.5.545.5h22.91c.3 0 .545-.224.545-.5V15H0z" fill="#88392B"/><path fill-rule="evenodd" clip-rule="evenodd" d="M0 15V9.5c0-.276.244-.5.545-.5h22.91c.3 0 .545.224.545.5V15H0z" fill="#573830"/><rect x="10" y="14" width="4" height="3" rx="1" fill="#FFD399"/></svg>