<svg width="20" height="20" fill="none" xmlns="http://www.w3.org/2000/svg"><path fill="#fff" d="M0 0h20v20H0z"/><path d="M8.263 11.094v2.433l-4.482 1.6A2.684 2.684 0 002 17.655v1.687h17v-1.687a2.684 2.684 0 00-1.781-2.528l-4.482-1.6v-2.6" stroke="#000" stroke-linejoin="round"/><path clip-rule="evenodd" d="M14.861 6.368c0 2.965-2.003 5.369-4.473 5.369-2.472 0-4.474-2.404-4.474-5.369C5.914 3.404 7.916 1 10.388 1c2.47 0 4.473 2.404 4.473 5.368v0z" stroke="#000" stroke-linejoin="round"/><path d="M14.817 5.88c-.15.018-.254.012-.405.041-1.524.294-2.503-.258-3.342-1.727-.503.965-2.077 1.727-3.369 1.727-.636 0-1.184-.13-1.732-.417" stroke="#000" stroke-linejoin="round"/></svg>