<svg width="20" height="20" viewBox="0 0 20 20" fill="none" xmlns="http://www.w3.org/2000/svg">
<rect width="20" height="20" fill="white"/>
<path d="M8.26316 11.0938V13.5266L3.78142 15.1273C2.71311 15.5094 2 16.5204 2 17.6549V19.3424H19V17.6549C19 16.5204 18.2869 15.5094 17.2186 15.1273L12.7368 13.5266V10.9265" stroke="black" stroke-linejoin="round"/>
<path fill-rule="evenodd" clip-rule="evenodd" d="M14.8614 6.36842C14.8614 9.33268 12.8581 11.7368 10.3877 11.7368C7.91648 11.7368 5.91406 9.33268 5.91406 6.36842C5.91406 3.40416 7.91648 1 10.3877 1C12.8581 1 14.8614 3.40416 14.8614 6.36842V6.36842Z" stroke="black" stroke-linejoin="round"/>
<path d="M14.8168 5.87913C14.6665 5.89791 14.5627 5.89165 14.4115 5.92118C12.8878 6.21465 11.9089 5.6626 11.0696 4.19434C10.5668 5.15886 8.99296 5.92118 7.70096 5.92118C7.0648 5.92118 6.51722 5.79055 5.96875 5.50423" stroke="black" stroke-linejoin="round"/>
</svg>
