<svg width="49" height="66" viewBox="0 0 49 66" xmlns="http://www.w3.org/2000/svg" xmlns:xlink="http://www.w3.org/1999/xlink"><defs><path d="M0 8.794v39.914C0 50.139 1.126 51.3 2.515 51.3h33.672c1.387 0 2.513-1.16 2.513-2.592V2.592C38.7 1.161 37.574 0 36.187 0H9.317L0 8.794z" id="utklippstavlen_svg__a"/></defs><g fill="none" fill-rule="evenodd"><path d="M45.441 5.4H3.157C1.412 5.4 0 6.828 0 8.593v53.915a3.204 3.204 0 001.152 2.462 3.121 3.121 0 002.005.73h42.284c1.745 0 3.159-1.43 3.159-3.192V8.593c0-1.765-1.414-3.193-3.159-3.193" fill="#515658"/><g transform="translate(4.5 9.9)"><mask id="utklippstavlen_svg__b" fill="#fff"><use xlink:href="#utklippstavlen_svg__a"/></mask><g mask="url(#utklippstavlen_svg__b)" fill="#FFF"><path d="M-6-7h49v65H-6z"/></g></g><path d="M13.817 9.9v6.125a2.673 2.673 0 01-2.677 2.67H4.5L13.817 9.9z" fill="#C9C9C9"/><path d="M27.618 47.136V33.775h-9.445v2.623h2.09v10.738h-2.09v2.623h11.533v-2.623zM23.94 31.538c2.453 0 4.442-2.044 4.442-4.564 0-2.522-1.99-4.565-4.442-4.565-2.453 0-4.441 2.043-4.441 4.565 0 2.52 1.988 4.564 4.441 4.564" fill="#515658"/><path d="M25.751 7.463c-.55 0-.995-.46-.995-1.03 0-.571.445-1.034.995-1.034.548 0 .995.463.995 1.033 0 .571-.447 1.03-.995 1.03m6.144-4.219h-3.702v-.71C28.193 1.135 27.099 0 25.75 0c-1.351 0-2.443 1.134-2.443 2.534v.71h-3.702c-1.825 0-3.306 1.536-3.306 3.43V10.8h18.9V6.674c0-1.894-1.48-3.43-3.305-3.43" fill="#2F3237"/></g></svg>