<svg xmlns="http://www.w3.org/2000/svg" xmlns:xlink="http://www.w3.org/1999/xlink" width="24" height="24"><defs><path id="a" d="M23.516 12a.5.5 0 0 1 .5.5v9a.5.5 0 0 1-.5.5h-23a.5.5 0 0 1-.5-.5v-9a.5.5 0 0 1 .5-.5h6.5a.5.5 0 0 1 0 1h-6v8h22v-8h-4a.5.5 0 0 1 0-1h4.5zM8.228 17.5a.497.497 0 0 1-.459-.697l2.117-4.94v-.001l.003-.008a.495.495 0 0 1 .106-.157l8.84-8.839a.5.5 0 0 1 .707 0l2.828 2.828a.504.504 0 0 1 0 .708l-8.839 8.84a.495.495 0 0 1-.157.106l-.008.003h-.001l-4.94 2.116a.49.49 0 0 1-.197.041zm9.124-11.745l-6.295 6.296 2.121 2.122 6.296-6.297-2.122-2.121zm1.836-1.836l-1.129 1.129 2.121 2.121 1.129-1.129-2.121-2.121zm-8.67 9.008l-1.339 3.122 3.122-1.337-1.783-1.785z"/></defs><g fill="none" fill-rule="evenodd"><mask id="b" fill="#fff"><use xlink:href="#a"/></mask><use fill="#3E3832" fill-rule="nonzero" xlink:href="#a"/><g fill="#3E3832" mask="url(#b)"><path d="M0 24h24V0H0z"/></g></g></svg>