<svg width="20" height="20" xmlns="http://www.w3.org/2000/svg" xmlns:xlink="http://www.w3.org/1999/xlink"><defs><path d="M19.1 2.358L17.332.59c-.786-.787-2.16-.787-2.947 0l-.589.59L1.6 13.38c-.001 0-.003 0-.004.002 0 .001 0 .002-.002.003l-.207.207a.415.415 0 0 0-.11.199L.01 19.178a.417.417 0 0 0 .501.501L5.9 18.415a.415.415 0 0 0 .2-.11l.205-.206c.001-.002.003-.002.005-.003l.003-.005L17.312 7.093c.003-.003.008-.004.012-.007.003-.004.004-.009.007-.012l1.173-1.171c.002-.003.006-.004.01-.007.003-.003.003-.007.006-.01l.582-.582a2.09 2.09 0 0 0-.002-2.946zm-2.072 3.84L13.5 2.653l.59-.59L17.627 5.6l-.6.598zM6.014 17.212l-3.535-3.535L12.91 3.243l3.528 3.544L6.014 17.212zm-4.02-2.841l3.326 3.325-4.345 1.019 1.02-4.344zm16.517-9.655l-.295.295-3.536-3.537.295-.295c.47-.472 1.295-.472 1.768 0l1.768 1.768c.487.487.487 1.28 0 1.769z" id="a"/></defs><use fill="#0067C5" fill-rule="nonzero" xlink:href="#a"/></svg>