<svg xmlns="http://www.w3.org/2000/svg" xmlns:xlink="http://www.w3.org/1999/xlink" width="40" height="40" viewBox="0 0 40 40">
    <defs>
        <path id="a" d="M39.002 38.667A.833.833 0 0 1 38.333 40a.832.832 0 0 1-.666-.335l-5-6.667a.837.837 0 0 1-.167-.498v-7.598c0-2.115-1.872-4.295-4.167-6.389v6.974l1.424 1.423a.834.834 0 0 1-1.179 1.178l-3.75-3.75a.935.935 0 0 0-1.321 0c-.304.302-.155 1.135.006 1.327l3.84 5.527a.842.842 0 0 1 .147.475v1.666c0 .847 1.637 3.417 3.152 5.312a.834.834 0 0 1-1.302 1.042 32.687 32.687 0 0 1-2.133-3.014H3.333A3.349 3.349 0 0 1 0 33.333v-30A3.337 3.337 0 0 1 3.333 0H25a3.336 3.336 0 0 1 3.333 3.333v12.955c3.509 3.027 5.834 5.672 5.834 8.614v7.32l4.835 6.445zM26.007 23.16l.66.66V3.333c0-.92-.747-1.666-1.667-1.666H3.333c-.918 0-1.666.746-1.666 1.666v30c0 .92.75 1.67 1.67 1.674H26.3c-.283-.625-.467-1.209-.467-1.674v-1.406L24.5 30H4.167a.834.834 0 0 1-.834-.833v-25c0-.462.374-.834.834-.834h20c.461 0 .833.372.833.834v18.38a2.58 2.58 0 0 1 1.007.613zm-2.662 5.173l-1.113-1.61c-.629-.608-.954-2.515.096-3.563.294-.292.64-.49 1.005-.613V5H5v23.333h18.345zm-13.292 5v-1.667h6.563v1.667h-6.563zm-2.552 0a.835.835 0 0 1-.833-.834c0-.458.373-.833.833-.833.46 0 .833.375.833.833a.835.835 0 0 1-.833.834zm11.667 0a.835.835 0 0 1-.834-.834.835.835 0 0 1 1.667 0 .835.835 0 0 1-.833.834zm-10.834-10v-1.667h11.667v1.666H8.334zm0-3.334v-1.666h11.667v1.666H8.334zm0-3.333v-1.667h11.667v1.667H8.334zm0-3.334v-1.666h11.667v1.666H8.334zm0-3.333V8.332h6.667V10H8.334z"/>
    </defs>
    <g fill="none" fill-rule="evenodd">
        <mask id="b" fill="#fff">
            <use xlink:href="#a"/>
        </mask>
        <use fill="#3E3832" xlink:href="#a"/>
        <g fill="#3E3832" mask="url(#b)">
            <path d="M0 40h40V0H0z"/>
        </g>
    </g>
</svg>
