<svg width="80" height="80" xmlns="http://www.w3.org/2000/svg" xmlns:xlink="http://www.w3.org/1999/xlink"><defs><path d="M0 6.84v31.044C0 38.997.899 39.9 2.007 39.9h26.879a2.012 2.012 0 0 0 2.006-2.016V2.016A2.012 2.012 0 0 0 28.886 0H7.437L0 6.84z" id="a"/><path d="M0 6.827V37.81c0 1.11.903 2.012 2.018 2.012h27.02a2.015 2.015 0 0 0 2.018-2.012V2.012A2.015 2.015 0 0 0 29.039 0H7.476L0 6.827z" id="c"/></defs><g fill="none" fill-rule="evenodd"><path d="M57.273 17.2H23.52c-1.393 0-2.52 1.11-2.52 2.483v41.934a2.448 2.448 0 0 0 .92 1.915 2.525 2.525 0 0 0 1.6.568h33.753c1.393 0 2.522-1.112 2.522-2.483V19.683c0-1.372-1.129-2.483-2.522-2.483" fill="#515658"/><g transform="translate(24.592 20.7)"><mask id="b" fill="#fff"><use xlink:href="#a"/></mask></g><path d="M32.03 20.7v4.764c0 1.147-.957 2.076-2.138 2.076h-5.3l7.437-6.84z" fill="#C9C9C9"/><g fill="#515658"><path d="M43.196 48.458V38.16h-7.6v2.022h1.682v8.276h-1.682v2.022h9.28v-2.022zM40.236 36.48c1.922 0 3.48-1.505 3.48-3.36 0-1.856-1.558-3.36-3.48-3.36s-3.48 1.504-3.48 3.36c0 1.855 1.558 3.36 3.48 3.36"/></g><path d="M40.758 18.805a.797.797 0 0 1-.795-.802c0-.444.355-.804.795-.804a.8.8 0 0 1 .793.804.798.798 0 0 1-.793.802m4.904-3.282h-2.955v-.552A1.96 1.96 0 0 0 40.757 13a1.96 1.96 0 0 0-1.95 1.97v.553h-2.955c-1.456 0-2.639 1.195-2.639 2.668V21.4H48.3v-3.209c0-1.473-1.182-2.668-2.638-2.668" fill="#2F3237"/><g><circle fill="#99C2E8" cx="40" cy="40" r="40"/><path d="M57.465 17.192H23.534c-1.4 0-2.534 1.108-2.534 2.478v41.852a2.427 2.427 0 0 0 .924 1.911 2.549 2.549 0 0 0 1.61.567h33.931c1.4 0 2.535-1.11 2.535-2.478V19.67c0-1.37-1.135-2.478-2.535-2.478" fill="#515658"/><g transform="translate(24.611 20.685)"><mask id="d" fill="#fff"><use xlink:href="#c"/></mask><use fill="#FFF" xlink:href="#c"/></g><path d="M32.087 20.685v4.754c0 1.145-.961 2.073-2.148 2.073h-5.328l7.476-6.827z" fill="#C9C9C9"/><g fill="#515658"><path d="M43.073 48.782V38.32h-7.535v2.054h1.667v8.408h-1.667v2.054h9.202v-2.054zM40.139 36.613c1.905 0 3.45-1.528 3.45-3.413 0-1.885-1.545-3.413-3.45-3.413-1.906 0-3.45 1.528-3.45 3.413 0 1.885 1.544 3.413 3.45 3.413"/></g><path d="M40.862 18.793a.798.798 0 0 1-.798-.8.8.8 0 0 1 .798-.802.8.8 0 0 1 0 1.602m4.93-3.275h-2.97v-.551A1.963 1.963 0 0 0 40.861 13c-1.085 0-1.96.88-1.96 1.967v.55H35.93a2.66 2.66 0 0 0-2.653 2.664v3.203h15.166V18.18a2.658 2.658 0 0 0-2.652-2.663" fill="#2F3237"/></g></g></svg>