<svg width="20" height="21" xmlns="http://www.w3.org/2000/svg" xmlns:xlink="http://www.w3.org/1999/xlink"><defs><path d="M19.565 2.625c.24 0 .435.196.435.438a.436.436 0 0 1-.435.437h-2.608v17.063a.436.436 0 0 1-.435.437H2.609a.436.436 0 0 1-.435-.438V3.5H.434A.436.436 0 0 1 0 3.062c0-.241.195-.437.435-.437H5.652V.437c0-.241.195-.437.435-.437h6.956c.24 0 .435.196.435.438v2.187h6.087zM6.522.875v1.75h6.087V.875H6.522zm9.565 19.25V3.5H3.043v16.625h13.044zm-10-14.438c.24 0 .435.196.435.438v10.5a.436.436 0 0 1-.435.438.436.436 0 0 1-.435-.438v-10.5c0-.242.195-.438.435-.438zm3.478 0c.24 0 .435.196.435.438v10.5a.436.436 0 0 1-.435.438.436.436 0 0 1-.435-.438v-10.5c0-.242.195-.438.435-.438zm3.044.438c0-.242.194-.438.434-.438s.435.196.435.438v10.5a.436.436 0 0 1-.435.438.436.436 0 0 1-.434-.438v-10.5z" id="a"/></defs><use fill="#0067C5" xlink:href="#a" fill-rule="evenodd"/></svg>