<svg xmlns="http://www.w3.org/2000/svg" width="54" height="73" viewBox="0 0 54 73">
    <g fill="none" fill-rule="evenodd">
        <path fill="#FFF" d="M0 0h50l4 24H4zM0 49h50l4 24H4z"/>
        <path fill="#E7E9E9" d="M54 24H4L0 49h50z"/>
        <circle cx="15" cy="12" r="5" fill="#06893A"/>
        <circle cx="25" cy="36" r="5" fill="#06893A"/>
        <circle cx="25" cy="15" r="2" fill="#91C823"/>
        <circle cx="33" cy="19" r="2" fill="#91C823"/>
        <circle cx="32" cy="28" r="2" fill="#91C823"/>
        <circle cx="16" cy="45" r="2" fill="#78706A"/>
        <circle cx="13" cy="55" r="2" fill="#78706A"/>
        <circle cx="22" cy="62" r="2" fill="#78706A"/>
        <path fill="#78706A" d="M35.607 60.778l2.474-2.475a2 2 0 1 1 2.829 2.829l-2.475 2.475 2.475 2.474a2 2 0 1 1-2.829 2.829l-2.474-2.475-2.475 2.475a2 2 0 1 1-2.829-2.829l2.475-2.474-2.475-2.475a2 2 0 1 1 2.829-2.829l2.475 2.475z"/>
    </g>
</svg>
