<svg xmlns="http://www.w3.org/2000/svg" xmlns:xlink="http://www.w3.org/1999/xlink" width="100" height="100"><defs><circle id="a" cx="50" cy="50" r="50"/><path id="c" d="M0 68.998V27.767C0 12.432 11.055 0 24.695 0 38.332 0 50 10.665 50 26v1.767s.101 17.641-9.783 26.24c-2.18-1.007-4.49-2.162-5.866-2.68l-.094-1.048.05-.087c4.428-2.832 7.863-7.603 9.519-13.368.203.113.432.176.674.176.83 0 1.5-.74 1.5-1.657v-6.685c0-.355-.1-.683-.272-.953a1.545 1.545 0 0 0-1.122-.49c-.201 0-.392.043-.569.114C23.857 29.72 16.817 16 16.222 16c0 0-8.44 7.9-9.85 10.8 0 0-.098.559-.225.467a1.522 1.522 0 0 0-.569-.116c-.87 0-1.576.73-1.578 1.631v-.132 6.693C4 36.26 4.673 37 5.5 37c.183 0 .359-.036.521-.102 1.675 5.768 5.132 10.534 9.58 13.347l.016.034-.042.994C10.362 53.165.109 61.39 0 68.998z"/><path id="e" d="M36.358 2.804C41.911 5.793 50 13.084 50 19.862V31c0 6.627-5.373 12-12 12H0V19.862C0 13.355 7.327 6.375 12.77 3.183c.999 1.73 3.635 8.622 11.659 8.622 7.964 0 11.767-7.289 11.93-9z"/></defs><g fill="none" fill-rule="evenodd"><mask id="b" fill="#fff"><use xlink:href="#a"/></mask><g mask="url(#b)"><path fill="#99BDCD" d="M-8 100h126V0H-8z"/></g><g mask="url(#b)"><path fill="#E7E5E2" fill-rule="nonzero" d="M69.155 51.468c-1.715 5.567-5.073 10.189-9.377 13.017l.22 2.479-.001.1L57.67 87.5H42.914l-.06-.43L40 67.03l.106-2.507c-4.326-2.82-7.703-7.45-9.428-13.031a1.9 1.9 0 0 1-.178.008V51v.5c-1.116 0-2-.975-2-2.157v-6.685c0-.792.397-1.492.995-1.867.933-12.482 9.698-22.291 20.418-22.291 10.69 0 19.437 9.757 20.41 22.19.698.339 1.177 1.097 1.177 1.968v6.685c0 1.182-.883 2.157-2 2.157V51v.5c-.118 0-.233-.01-.345-.032z"/><path fill="#635E59" d="M42.715 45.743c-1.362.104-1.743-1.922-1.333-3.246.077-.25.528-1.392 1.326-1.392.797 0 1.15.624 1.198.731.587 1.29.299 3.793-1.191 3.907m15.199 0c1.362.104 1.743-1.922 1.333-3.246-.077-.25-.528-1.392-1.326-1.392a1.34 1.34 0 0 0-1.198.731c-.587 1.29-.299 3.793 1.191 3.907"/><path fill="#59514B" fill-rule="nonzero" d="M50.746 48.073c.801-.124 1.348-.046 1.544.196.74.918.503 1.888-.766 2.685-.667.418-1.585.566-2.07.349a.469.469 0 0 0-.621.242c-.106.24.002.52.24.626.803.36 2.038.161 2.949-.41 1.723-1.083 2.118-2.702.998-4.091-.474-.588-1.313-.707-2.417-.536a.474.474 0 0 0 .143.94zM56.11 55c-.042.097-.14.285-.296.533a6.724 6.724 0 0 1-1.001 1.23c-1.204 1.168-2.77 1.843-4.764 1.78-1.944-.06-3.504-.724-4.727-1.795a7.058 7.058 0 0 1-1.115-1.235 4.33 4.33 0 0 1-.332-.534.469.469 0 0 0-.63-.216.477.477 0 0 0-.214.636c.069.142.203.373.409.665a8 8 0 0 0 1.265 1.4c1.38 1.21 3.145 1.962 5.315 2.03 2.26.07 4.067-.709 5.445-2.046.46-.446.84-.925 1.143-1.404.184-.292.304-.523.365-.665a.477.477 0 0 0-.243-.625.469.469 0 0 0-.62.245z"/><g transform="translate(25 14)"><mask id="d" fill="#fff"><use xlink:href="#c"/></mask><use fill="#FAA738" xlink:href="#c"/><g fill="#8B5F26" mask="url(#d)"><path d="M-9-6h69v79H-9z"/></g></g><g transform="translate(25 63)"><mask id="f" fill="#fff"><use xlink:href="#e"/></mask><use fill="#D8A25D" xlink:href="#e"/><g mask="url(#f)"><path fill="#5C4378" d="M-30.556 68.142h117v-87h-117z"/></g><g mask="url(#f)"><path fill="#D2242A" d="M44.52 27.826H29.887a1.173 1.173 0 0 1-1.182-1.165v-7.753c0-.643.529-1.165 1.182-1.165H44.52c.653 0 1.183.522 1.183 1.165v7.753c0 .644-.53 1.165-1.183 1.165"/><path fill="#FFF" d="M40.853 23.25c0 1.904-1.598 3.45-3.57 3.45-1.975 0-3.574-1.546-3.574-3.45 0-1.904 1.599-3.45 3.574-3.45 1.972 0 3.57 1.546 3.57 3.45m-8.198 1.52h-.696l.744-1.762h.699zm8.781 0h-.432l.744-1.762h.432zm1.191 0h-.182l.742-1.762h.183z"/><path fill="#C52D35" d="M34.57 24.762h.548c.028 0 .05-.02.05-.047v-1.65c0-.026-.022-.047-.05-.047h-.554a.062.062 0 0 0-.064.062l-.218.519a.043.043 0 0 0 .038.06h.157c.023 0 .043.016.043.041v1.015c0 .026.022.047.05.047"/><path fill="#C52D35" d="M35.76 24.762h.55c.03 0 .054-.02.054-.047v-1.65c0-.026-.025-.047-.053-.047h-.855a.063.063 0 0 0-.065.062l-.219.519-.075.06h.437c.098 0 .177.074.177.17v.886c0 .026.022.047.05.047m2.459-1.744h-.55a.049.049 0 0 0-.05.048v1.649a.05.05 0 0 0 .05.048h.556a.062.062 0 0 0 .064-.063l.218-.519c.013-.028-.008-.059-.041-.059h-.152a.042.042 0 0 1-.043-.041v-1.015c0-.027-.025-.048-.052-.048"/><path fill="#C52D35" d="M35.958 24.762h.361a.063.063 0 0 0 .064-.061l.218-.52a.043.043 0 0 0-.04-.06h-.153l-.45.641zm3.734-1.744h.654c.032 0 .054.03.04.057l-.692 1.66c-.005.018-.02.028-.04.028h-.592l.587-1.717a.046.046 0 0 1 .043-.028"/><path fill="#C52D35" d="M38.872 23.018h-.925c-.065 0 .266.061.29.119l.653 1.57a.088.088 0 0 0 .084.056h.561l-.577-1.686a.089.089 0 0 0-.086-.06m-1.208.56c0 .352-.046.373-.046.373s-.052-.337-.32-.337c-.265 0-.325.149-.325.26 0 .129.135.25.21.25h.481l-.284.607a.058.058 0 0 1-.053.033h-.218c-.23 0-.827-.29-.827-.851 0-.562.444-.894.815-.894.306 0 .567.203.567.56z"/><path fill="#5A1F57" d="M38.083 19.343h-1.517a.2.2 0 0 1-.202-.196V18.9a.2.2 0 0 1 .202-.195h1.517a.2.2 0 0 1 .203.195v.247a.2.2 0 0 1-.203.196"/><path fill="#C2B5CF" d="M36.886 19.118h.878v-2.292h-.878z"/></g></g></g></g></svg>