<svg xmlns="http://www.w3.org/2000/svg" xmlns:xlink="http://www.w3.org/1999/xlink" viewBox="0 0 96 96" width="96" height="96" preserveAspectRatio="xMidYMid meet" style="width: 100%; height: 100%; transform: translate3d(0px, 0px, 0px); content-visibility: visible;"><defs><clipPath id="__lottie_element_131"><rect width="96" height="96" x="0" y="0"></rect></clipPath></defs><g clip-path="url(#__lottie_element_131)"><g transform="matrix(1,0,0,1,-0.25,33.75)" opacity="1" style="display: block;"><g opacity="1" transform="matrix(1,0,0,1,48.25,14.25)"><path fill="rgb(255,236,204)" fill-opacity="1" d=" M0,-14 C7.906000137329102,-14 14.315999984741211,-7.73199987411499 14.315999984741211,0 C14.315999984741211,7.73199987411499 7.906000137329102,14 0,14 C-7.906000137329102,14 -14.315999984741211,7.73199987411499 -14.315999984741211,0 C-14.315999984741211,-7.73199987411499 -7.906000137329102,-14 0,-14z"></path></g><g opacity="1" transform="matrix(1,0,0,1,14.565999984741211,14.25)"><path fill="rgb(255,236,204)" fill-opacity="1" d=" M0,-14 C7.906000137329102,-14 14.315999984741211,-7.73199987411499 14.315999984741211,0 C14.315999984741211,7.73199987411499 7.906000137329102,14 0,14 C-7.906000137329102,14 -14.315999984741211,7.73199987411499 -14.315999984741211,0 C-14.315999984741211,-7.73199987411499 -7.906000137329102,-14 0,-14z"></path></g><g opacity="1" transform="matrix(1,0,0,1,81.93399810791016,14.25)"><path fill="rgb(255,236,204)" fill-opacity="1" d=" M0,-14 C7.906000137329102,-14 14.315999984741211,-7.73199987411499 14.315999984741211,0 C14.315999984741211,7.73199987411499 7.906000137329102,14 0,14 C-7.906000137329102,14 -14.315999984741211,7.73199987411499 -14.315999984741211,0 C-14.315999984741211,-7.73199987411499 -7.906000137329102,-14 0,-14z"></path></g></g><g transform="matrix(1,0,0,1,-0.25099945068359375,44.749000549316406)" opacity="1" style="display: block;"><g opacity="1" transform="matrix(1,0,0,1,25.75,25.75)"><path fill="rgb(38,38,38)" fill-opacity="1" d=" M25.489999771118164,-17.42300033569336 C25.268999099731445,-21.92099952697754 21.55299949645996,-25.5 17,-25.5 C17,-25.5 -17,-25.5 -17,-25.5 C-17,-25.5 -17.423999786376953,-25.48900032043457 -17.423999786376953,-25.48900032043457 C-21.92099952697754,-25.26799964904785 -25.5,-21.552000045776367 -25.5,-17 C-25.5,-17 -25.5,25.5 -25.5,25.5 C-25.5,25.5 -10.625,14.875 -10.625,14.875 C-10.625,14.875 17,14.875 17,14.875 C17,14.875 17.424999237060547,14.864999771118164 17.424999237060547,14.864999771118164 C21.922000885009766,14.644000053405762 25.5,10.927000045776367 25.5,6.375 C25.5,6.375 25.5,-17 25.5,-17 C25.5,-17 25.489999771118164,-17.42300033569336 25.489999771118164,-17.42300033569336z M17.309999465942383,11.866999626159668 C17.309999465942383,11.866999626159668 16.96299934387207,11.875 16.96299934387207,11.875 C16.96299934387207,11.875 -10.625,11.875 -10.625,11.875 C-10.625,11.875 -11.586000442504883,11.875 -11.586000442504883,11.875 C-11.586000442504883,11.875 -12.368000030517578,12.434000015258789 -12.368000030517578,12.434000015258789 C-12.368000030517578,12.434000015258789 -22.5,19.67099952697754 -22.5,19.67099952697754 C-22.5,19.67099952697754 -22.5,-17 -22.5,-17 C-22.5,-19.933000564575195 -20.201000213623047,-22.332000732421875 -17.30900001525879,-22.490999221801758 C-17.30900001525879,-22.490999221801758 -16.961999893188477,-22.5 -16.961999893188477,-22.5 C-16.961999893188477,-22.5 17,-22.5 17,-22.5 C19.93400001525879,-22.5 22.33300018310547,-20.201000213623047 22.492000579833984,-17.30900001525879 C22.492000579833984,-17.30900001525879 22.5,-16.961999893188477 22.5,-16.961999893188477 C22.5,-16.961999893188477 22.5,6.375 22.5,6.375 C22.5,9.309000015258789 20.20199966430664,11.708000183105469 17.309999465942383,11.866999626159668z"></path></g></g><g transform="matrix(1,0,0,1,53.75,-0.24900054931640625)" opacity="1" style="display: block;"><g opacity="1" transform="matrix(1,0,0,1,21.25,21.25)"><path fill="rgb(38,38,38)" fill-opacity="1" d=" M14.350000381469727,-20.992000579833984 C14.350000381469727,-20.992000579833984 14.348999977111816,-20.992000579833984 14.348999977111816,-20.992000579833984 C14.348999977111816,-20.992000579833984 14.348999977111816,-20.989999771118164 14.348999977111816,-20.989999771118164 C14.348999977111816,-20.989999771118164 14.348999977111816,-20.992000579833984 14.348999977111816,-20.992000579833984 C14.348999977111816,-20.992000579833984 14,-21 14,-21 C14,-21 -14,-21 -14,-21 C-17.749000549316406,-21 -20.809999465942383,-18.054000854492188 -20.990999221801758,-14.350000381469727 C-20.990999221801758,-14.350000381469727 -21,-14 -21,-14 C-21,-14 -21,5.25 -21,5.25 C-21,8.99899959564209 -18.05299949645996,12.059000015258789 -14.350000381469727,12.241000175476074 C-14.350000381469727,12.241000175476074 -14.348999977111816,12.241000175476074 -14.348999977111816,12.241000175476074 C-14.348999977111816,12.241000175476074 -14,12.25 -14,12.25 C-14,12.25 8.75,12.25 8.75,12.25 C8.75,12.25 21,21 21,21 C21,21 21,-14 21,-14 C21,-17.749000549316406 18.05299949645996,-20.809999465942383 14.350000381469727,-20.992000579833984z M18,15.170000076293945 C18,15.170000076293945 10.494000434875488,9.807999610900879 10.494000434875488,9.807999610900879 C10.494000434875488,9.807999610900879 9.711000442504883,9.25 9.711000442504883,9.25 C9.711000442504883,9.25 8.75,9.25 8.75,9.25 C8.75,9.25 -13.963000297546387,9.25 -13.963000297546387,9.25 C-13.963000297546387,9.25 -14.232999801635742,9.243000030517578 -14.232999801635742,9.243000030517578 C-16.332000732421875,9.123000144958496 -18,7.380000114440918 -18,5.25 C-18,5.25 -18,-13.96399974822998 -18,-13.96399974822998 C-18,-13.96399974822998 -17.993000030517578,-14.234000205993652 -17.993000030517578,-14.234000205993652 C-17.874000549316406,-16.33300018310547 -16.131000518798828,-18 -14,-18 C-14,-18 13.963000297546387,-18 13.963000297546387,-18 C13.963000297546387,-18 14.234000205993652,-17.993999481201172 14.234000205993652,-17.993999481201172 C16.33300018310547,-17.874000549316406 18,-16.131000518798828 18,-14 C18,-14 18,15.170000076293945 18,15.170000076293945z"></path></g></g></g></svg>